{"glyphs":{"0":{"ha":1145,"x_min":22,"x_max":1123,"o":"m 645 352 q 641 397 645 375 q 627 437 636 419 q 605 466 618 455 q 575 476 592 476 q 541 463 554 476 q 519 430 527 449 q 507 389 510 410 q 504 351 504 367 q 508 308 504 329 q 521 270 513 287 q 542 243 529 253 q 571 233 554 233 q 607 245 592 233 q 630 275 621 257 q 642 315 638 294 q 645 352 645 335 m 243 533 q 242 555 247 544 q 226 569 237 566 q 217 571 220 571 q 200 566 208 571 q 190 552 193 561 l 184 535 q 185 513 180 523 q 201 499 190 502 q 206 497 203 497 q 210 497 208 497 q 227 502 219 497 q 238 516 234 507 l 243 533 m 481 805 q 499 816 492 806 q 503 837 506 825 q 493 856 502 849 q 472 860 483 863 q 388 829 428 853 q 317 773 349 805 q 262 707 285 742 q 228 643 239 672 q 229 621 224 631 q 245 606 234 610 q 255 605 249 605 q 281 623 274 605 q 310 677 291 648 q 356 734 329 707 q 415 780 383 760 q 481 805 447 799 m 1054 694 q 1104 539 1087 621 q 1122 372 1121 457 q 1108 200 1123 286 q 1061 32 1092 114 q 1001 -85 1035 -35 q 925 -170 966 -135 q 840 -230 885 -206 q 751 -268 796 -253 q 661 -290 706 -283 q 577 -301 617 -298 q 282 -217 405 -301 q 88 31 158 -133 q 39 193 55 108 q 23 363 22 277 q 42 532 24 448 q 94 694 60 617 q 177 825 127 767 q 289 923 226 883 q 423 986 351 964 q 574 1008 496 1008 q 726 984 653 1007 q 861 920 799 961 q 973 822 924 879 q 1054 694 1023 765 z "},"1":{"ha":737,"x_min":6,"x_max":699,"o":"m 675 750 q 691 613 685 685 q 698 467 696 541 q 697 318 699 392 q 690 174 695 244 q 678 40 685 103 q 662 -78 671 -24 q 632 -170 653 -127 q 578 -245 611 -213 q 503 -297 546 -278 q 407 -315 460 -315 q 325 -301 367 -315 q 247 -259 283 -287 q 183 -186 210 -231 q 144 -81 156 -142 q 124 65 131 -16 q 115 230 117 145 q 115 398 113 315 q 122 553 117 481 q 116 558 119 555 q 110 563 113 560 q 77 592 97 574 q 42 637 58 610 q 16 702 26 664 q 9 791 6 740 q 41 885 13 844 q 120 953 69 926 q 244 994 171 981 q 410 1008 317 1008 q 513 988 467 1008 q 592 933 558 968 q 646 851 625 898 q 675 750 667 803 m 156 758 q 161 777 162 767 q 152 795 160 788 q 133 803 144 803 q 112 794 120 803 q 103 756 94 775 q 114 743 106 747 q 128 738 121 738 q 156 758 149 738 m 417 877 q 414 899 420 889 q 396 910 408 908 q 364 916 382 914 q 324 918 345 918 q 282 916 303 918 q 240 907 260 913 q 200 891 219 901 q 165 866 181 881 q 157 846 157 858 q 165 826 157 834 q 185 818 174 818 q 206 826 197 818 q 230 843 216 836 q 259 853 244 849 q 292 859 275 858 q 324 861 308 861 q 358 859 342 861 q 384 856 373 858 q 406 859 396 853 q 417 877 415 865 z "},"2":{"ha":1142,"x_min":31,"x_max":1113,"o":"m 1056 153 q 1092 91 1078 126 q 1109 20 1105 57 q 1108 -53 1113 -16 q 1088 -125 1103 -91 q 995 -239 1057 -197 q 846 -289 933 -281 l 811 -292 q 668 -305 747 -299 q 507 -312 590 -312 q 404 -308 458 -312 q 297 -294 350 -304 q 196 -264 244 -283 q 111 -212 148 -244 q 52 -136 74 -181 q 31 -28 31 -90 q 49 80 31 31 q 100 168 68 128 q 173 241 131 208 q 261 300 215 274 q 356 349 308 327 q 448 391 404 372 q 516 422 483 406 q 574 451 549 437 q 614 480 599 466 q 624 507 628 494 q 613 525 620 521 q 591 530 605 530 q 530 518 567 530 q 453 491 493 506 q 410 476 432 483 q 365 460 388 468 q 283 447 322 447 q 135 511 195 447 q 93 575 109 539 q 70 652 76 612 q 69 735 65 692 q 89 817 74 777 q 197 951 123 901 q 374 1007 272 1001 q 458 1011 416 1010 q 541 1013 499 1013 q 679 1007 611 1013 q 809 986 747 1001 q 922 945 870 971 q 1013 879 974 919 q 1094 608 1110 780 q 1066 484 1088 537 q 1011 393 1044 432 q 938 329 978 355 q 853 285 897 303 q 766 255 810 267 q 685 235 723 244 q 618 218 646 226 q 572 201 590 210 q 547 183 554 193 q 542 160 540 174 q 544 153 543 153 q 554 151 547 151 q 576 155 563 151 q 605 162 590 158 q 636 173 620 167 q 667 183 652 178 q 751 211 706 197 q 842 233 795 226 q 864 236 853 235 q 885 237 875 237 q 981 216 938 237 q 1056 153 1024 195 m 238 715 q 236 736 242 726 q 220 750 231 747 q 212 751 215 751 q 187 737 196 751 q 178 708 178 722 q 186 688 178 696 q 206 679 194 679 q 225 686 217 679 q 235 704 233 694 q 236 709 235 706 q 238 713 237 711 l 238 715 m 501 839 q 522 845 513 838 q 532 864 531 852 q 526 885 533 876 q 506 895 518 894 q 484 897 499 896 q 451 898 470 898 q 391 895 424 898 q 325 882 358 892 q 265 855 293 872 q 218 808 236 837 q 215 786 212 798 q 227 769 217 775 q 242 765 235 765 q 256 768 249 765 q 266 778 263 772 q 299 809 278 797 q 345 828 319 822 q 400 838 372 835 q 453 841 428 841 q 501 839 481 841 z "},"3":{"ha":1074,"x_min":27,"x_max":1049,"o":"m 855 319 q 931 275 893 302 q 995 208 968 248 q 1036 116 1023 169 q 1040 -5 1049 63 q 998 -114 1031 -67 q 919 -197 966 -162 q 814 -257 872 -233 q 694 -295 756 -281 q 573 -316 633 -310 q 460 -322 512 -322 q 360 -317 408 -322 q 269 -302 311 -312 q 192 -277 226 -292 q 135 -243 158 -262 q 64 -157 88 -203 q 33 -66 40 -112 q 36 23 27 -20 q 67 102 46 67 q 103 150 82 128 q 152 190 125 173 q 212 217 180 207 q 281 226 244 226 q 328 222 303 226 q 378 208 353 217 q 448 193 416 193 q 508 212 486 193 q 523 231 519 222 q 525 245 526 240 q 513 249 523 247 q 488 251 503 251 q 458 249 475 251 q 422 242 442 247 q 399 240 411 240 q 364 247 379 240 q 337 268 348 255 q 320 298 326 281 q 313 333 314 315 q 318 370 313 353 q 334 399 324 387 q 360 419 344 412 q 396 426 376 426 q 409 425 402 426 q 425 422 417 424 q 467 414 449 417 q 499 412 485 412 q 522 414 514 412 q 531 418 529 416 q 529 425 531 419 q 520 438 527 430 q 482 461 507 451 q 421 471 458 471 q 347 460 388 471 q 259 449 299 449 q 165 466 207 449 q 92 519 123 484 q 58 576 71 544 q 41 643 45 608 q 43 716 38 678 q 63 789 48 753 q 116 874 83 836 q 191 940 148 912 q 285 984 233 967 q 394 1005 336 1001 q 432 1007 411 1006 q 478 1008 453 1008 q 600 1001 537 1008 q 725 980 664 995 q 842 939 786 965 q 940 874 897 913 q 1009 781 983 835 q 1040 656 1035 727 q 1028 554 1042 604 q 988 459 1013 503 q 927 378 962 415 q 855 319 892 342 m 231 715 q 230 736 235 726 q 213 750 224 747 q 205 751 208 751 q 180 737 189 751 q 171 708 171 722 q 179 688 171 696 q 199 679 188 679 q 218 686 210 679 q 228 704 226 694 q 228 709 228 706 q 230 713 229 711 q 231 714 231 713 q 231 715 231 715 m 494 839 q 514 845 506 838 q 524 864 523 852 q 518 885 526 876 q 499 895 511 894 q 477 897 492 896 q 444 898 463 898 q 384 895 417 898 q 318 882 351 892 q 257 855 285 872 q 210 808 228 837 q 208 786 205 798 q 220 769 210 775 q 235 765 228 765 q 259 778 251 765 q 292 809 271 797 q 338 828 313 822 q 392 838 364 835 q 446 841 420 841 q 494 839 474 841 z "},"4":{"ha":1231,"x_min":14,"x_max":1194,"o":"m 202 603 q 201 626 206 615 q 185 640 196 636 q 175 642 180 642 q 159 636 166 642 q 149 622 151 631 l 144 610 q 145 589 140 599 q 162 574 151 578 q 171 573 167 573 q 187 578 180 573 q 198 592 194 583 l 202 603 m 782 585 q 776 606 783 597 q 758 617 769 615 l 753 617 q 735 610 743 617 q 726 592 727 603 l 724 576 q 730 555 722 565 q 749 544 737 546 l 752 544 q 770 551 763 544 q 780 569 778 558 l 782 585 m 290 817 q 309 828 302 819 q 315 849 316 837 q 304 868 313 860 q 283 874 295 875 q 240 853 258 870 q 209 811 222 835 q 188 758 197 787 q 173 705 180 730 q 175 683 169 693 q 192 670 181 674 q 196 669 194 669 q 200 669 198 669 q 217 675 210 669 q 227 690 224 681 q 238 728 231 706 q 252 768 244 749 q 269 802 260 788 q 290 817 279 816 m 844 824 q 862 836 856 826 q 865 858 868 846 q 853 875 863 869 q 831 878 843 881 q 808 868 824 876 q 777 839 793 860 q 749 778 762 817 q 733 676 737 739 q 741 656 733 664 q 760 647 749 647 l 762 647 q 781 654 773 647 q 790 673 789 661 q 799 744 792 716 q 814 790 806 773 q 831 815 823 807 q 844 824 840 823 m 1169 749 q 1190 539 1185 651 q 1192 317 1194 428 q 1180 104 1189 206 q 1156 -79 1170 1 q 1118 -189 1145 -144 q 1056 -262 1091 -234 q 981 -303 1020 -290 q 904 -316 941 -316 l 901 -316 q 819 -302 861 -316 q 741 -260 777 -289 q 677 -187 705 -231 q 638 -83 650 -143 q 619 58 626 -22 q 609 231 612 137 q 559 221 589 226 q 492 211 528 216 q 415 203 456 206 q 332 200 374 200 q 265 203 300 200 q 195 213 229 206 q 129 233 160 220 q 73 267 97 247 q 33 318 49 288 q 17 388 18 347 q 19 497 14 444 q 34 600 24 551 q 57 695 44 650 q 81 781 69 740 l 90 809 q 128 889 102 852 q 187 951 153 925 q 261 993 221 978 q 343 1008 301 1008 q 436 987 396 1008 q 505 931 476 966 q 552 852 534 897 q 576 760 569 808 q 580 663 584 713 q 571 558 576 613 q 565 500 567 529 q 561 442 563 471 l 610 440 q 621 604 614 527 q 638 739 628 681 q 679 859 651 808 q 744 942 707 909 q 824 991 781 975 q 909 1007 867 1007 q 1010 986 965 1007 q 1088 930 1055 965 q 1141 848 1120 894 q 1169 749 1161 801 z "},"5":{"ha":1136,"x_min":28,"x_max":1106,"o":"m 1089 206 q 1104 110 1102 160 q 1100 15 1106 61 q 1081 -73 1094 -32 q 1049 -141 1067 -113 q 964 -228 1016 -194 q 848 -283 913 -263 q 711 -312 784 -303 q 560 -320 638 -320 q 436 -316 498 -320 q 314 -306 374 -312 q 152 -250 220 -297 q 52 -125 84 -203 q 33 -52 38 -90 q 33 21 28 -15 q 52 91 38 58 q 88 151 65 124 q 162 208 119 189 q 256 228 205 228 q 307 223 280 228 q 363 211 335 219 q 418 196 391 204 q 467 180 445 188 q 503 169 487 174 q 535 161 519 164 q 568 157 551 158 q 608 158 585 156 q 628 165 618 158 q 645 182 638 172 q 659 205 653 192 q 664 228 664 217 q 663 237 664 232 q 658 248 663 242 q 644 259 653 254 q 616 265 634 263 q 512 273 571 268 q 391 291 453 278 q 268 326 328 303 q 159 384 208 348 q 80 473 111 420 q 45 601 49 526 q 136 873 37 774 q 228 939 176 913 q 342 978 281 964 q 470 998 403 992 q 606 1003 538 1003 q 765 999 688 1003 q 935 950 864 994 q 1037 829 1006 906 q 1054 763 1050 797 q 1054 696 1058 728 q 1036 634 1049 663 q 1001 582 1023 605 q 944 541 976 555 q 875 528 913 528 q 841 531 858 528 q 806 539 824 533 q 715 561 759 553 q 635 569 672 569 q 606 567 623 569 q 573 561 588 566 q 545 546 557 556 q 531 520 533 537 q 547 496 528 508 q 595 474 565 485 q 661 455 625 464 q 729 439 697 447 q 848 410 789 425 q 956 371 906 394 q 1039 307 1005 349 q 1089 206 1072 265 m 217 641 q 211 662 218 653 q 192 672 203 671 l 188 672 q 169 665 177 672 q 160 647 162 658 l 160 638 q 166 617 158 626 q 185 607 173 608 q 188 606 186 606 q 207 614 199 606 q 216 632 215 621 l 217 641 m 374 810 q 393 819 385 810 q 401 839 401 827 q 393 859 401 851 q 374 867 385 867 q 332 860 360 867 q 275 836 305 852 q 219 797 245 821 q 183 738 194 772 q 185 716 180 726 q 202 703 191 706 q 210 701 208 701 q 227 707 219 701 q 238 722 234 713 q 263 759 244 742 q 303 787 281 776 q 345 805 325 799 q 374 810 365 810 z "},"6":{"ha":1040,"x_min":23,"x_max":1023,"o":"m 884 337 q 990 221 957 290 q 1015 63 1023 151 q 1002 -12 1012 28 q 972 -95 992 -53 q 919 -176 952 -137 q 838 -246 887 -215 q 720 -297 788 -277 q 560 -320 651 -317 q 539 -321 549 -321 q 517 -321 528 -321 q 429 -317 475 -321 q 339 -300 383 -312 q 251 -265 294 -287 q 171 -207 208 -243 q 59 -14 96 -134 q 23 281 23 106 q 47 488 24 393 q 113 659 71 582 q 211 796 154 736 q 334 899 267 856 q 473 968 400 942 q 620 1003 546 994 q 646 1006 633 1005 q 670 1007 658 1007 q 815 973 751 1007 q 919 875 880 939 q 955 793 943 837 q 967 706 967 750 q 955 621 967 663 q 920 544 944 579 q 838 469 887 494 q 726 444 788 444 q 674 448 701 444 q 641 452 656 451 q 611 453 625 453 q 571 450 591 453 q 534 440 551 447 q 504 418 517 432 q 483 385 490 405 q 624 405 545 405 q 760 389 691 405 q 884 337 828 372 m 301 642 q 306 663 308 651 q 294 681 304 674 q 278 687 287 687 q 255 675 263 687 l 242 658 q 237 636 235 648 q 249 618 239 625 q 265 613 256 613 q 288 624 279 613 l 301 642 m 367 711 q 409 755 382 734 q 468 790 435 775 q 538 814 501 805 q 610 822 574 822 q 630 830 622 822 q 638 850 638 838 q 630 870 638 862 q 610 878 622 878 q 524 868 567 878 q 441 840 480 858 q 370 797 402 822 q 319 742 339 772 q 315 721 313 733 q 327 703 317 710 q 343 699 335 699 q 367 711 358 699 m 552 83 q 589 97 572 83 q 608 135 606 110 q 594 168 609 159 q 558 178 579 178 q 514 170 536 178 q 476 153 491 163 q 487 127 481 140 q 503 105 494 115 q 525 89 513 95 q 552 83 537 83 z "},"7":{"ha":1097,"x_min":23,"x_max":1074,"o":"m 1055 869 q 1073 767 1072 827 q 1062 635 1074 707 q 1029 485 1051 564 q 981 326 1008 406 q 924 172 954 247 q 865 33 894 97 q 811 -80 836 -31 q 769 -154 785 -128 q 704 -228 741 -197 q 625 -280 667 -260 q 538 -311 583 -301 q 448 -321 492 -321 q 361 -311 403 -321 q 283 -281 319 -301 q 219 -230 244 -260 q 184 -165 194 -201 q 178 -88 174 -129 q 203 -3 183 -47 q 232 49 213 20 q 276 111 251 78 q 328 178 300 143 q 383 247 356 213 q 429 303 404 273 q 476 363 453 333 q 516 418 499 392 q 539 459 533 443 q 512 460 528 460 q 477 459 496 460 q 440 458 459 459 q 402 456 420 457 q 336 452 369 453 q 274 450 303 450 q 242 451 257 450 q 214 453 226 452 q 139 481 174 459 q 80 535 105 502 q 40 610 54 567 q 24 700 25 652 q 35 788 23 742 q 77 875 47 834 q 155 946 107 915 q 274 990 203 977 q 325 998 292 994 q 400 1006 357 1002 q 493 1012 442 1009 q 597 1015 543 1015 q 744 1008 670 1015 q 881 985 817 1002 q 990 941 944 969 q 1055 869 1036 913 m 182 720 q 182 741 186 731 q 167 757 178 752 q 156 759 162 759 q 141 755 148 759 q 130 742 133 750 q 126 727 126 733 q 126 718 125 720 q 134 698 126 706 q 153 690 142 690 q 155 691 155 691 q 175 700 167 692 q 182 720 183 708 m 548 853 q 568 861 559 853 q 576 881 576 869 q 569 901 577 892 q 549 910 561 909 q 511 910 538 910 q 450 908 484 910 q 376 902 415 906 q 300 888 338 897 q 232 864 263 878 q 181 828 201 849 q 174 807 174 819 q 184 788 175 796 q 203 781 192 781 q 224 790 215 781 q 280 823 242 810 q 364 843 317 835 q 459 852 410 850 q 548 853 508 855 z "},"8":{"ha":1244,"x_min":12,"x_max":1232,"o":"m 994 411 q 1089 363 1044 394 q 1166 288 1134 331 q 1215 189 1199 244 q 1227 69 1232 134 q 1195 -53 1222 2 q 1126 -150 1169 -108 q 1026 -225 1083 -193 q 905 -277 969 -256 q 769 -308 840 -298 q 626 -318 698 -318 l 615 -318 q 476 -308 547 -318 q 342 -277 406 -298 q 220 -225 277 -256 q 119 -150 163 -193 q 49 -52 76 -107 q 17 69 22 2 q 29 189 12 134 q 78 288 46 244 q 155 363 110 331 q 249 411 199 394 q 139 711 106 509 q 172 803 147 762 q 231 877 196 844 q 312 935 267 910 q 408 976 357 960 q 513 1001 459 992 q 622 1010 567 1010 q 725 1001 672 1009 q 828 977 778 993 q 925 938 879 962 q 1009 882 972 915 q 1071 806 1046 849 q 1105 711 1096 764 q 994 411 1138 509 m 608 707 q 572 697 587 707 q 549 672 557 687 q 541 640 541 658 q 548 608 540 622 q 570 583 555 593 q 609 573 585 573 q 645 583 630 573 q 669 608 660 593 q 679 640 678 622 q 673 672 681 658 q 650 697 666 687 q 608 707 634 707 m 299 672 q 300 694 304 683 q 284 710 295 705 q 274 712 279 712 q 258 707 265 712 q 247 694 251 702 l 244 685 q 243 664 239 675 q 259 649 248 653 q 269 647 265 647 q 285 651 278 647 q 296 664 292 656 l 299 672 m 492 818 l 494 818 q 513 825 506 818 q 522 844 521 832 q 516 864 524 856 q 497 874 508 873 l 488 874 q 435 866 465 874 q 376 843 406 858 q 323 809 347 828 q 288 765 299 789 q 287 743 283 754 q 302 727 291 733 q 314 725 308 725 q 329 729 322 725 q 340 741 336 733 q 364 769 346 756 q 405 794 383 783 q 450 811 427 805 q 488 818 472 818 l 492 818 m 609 -18 q 648 -5 632 -18 q 673 28 664 8 q 683 71 682 48 q 676 114 684 94 q 652 146 669 133 q 608 158 635 158 q 568 143 584 157 q 544 110 551 130 q 536 68 536 91 q 545 27 537 46 q 569 -5 553 8 q 609 -18 585 -18 z "},"9":{"ha":1040,"x_min":17,"x_max":1017,"o":"m 869 893 q 981 700 944 820 q 1017 405 1017 580 q 993 199 1017 293 q 928 27 969 104 q 830 -110 886 -50 q 707 -213 773 -170 q 567 -282 640 -256 q 420 -317 494 -308 q 394 -320 407 -319 q 370 -321 382 -321 q 225 -287 289 -321 q 120 -188 160 -253 q 85 -107 97 -150 q 74 -20 74 -64 q 85 66 74 24 q 120 142 97 108 q 203 217 153 192 q 313 243 252 243 q 340 242 326 243 q 367 238 353 241 q 399 234 383 235 q 428 233 415 233 q 468 236 449 233 q 506 247 488 239 q 536 268 523 255 q 558 301 550 281 q 417 281 495 281 q 281 298 349 281 q 156 350 212 315 q 50 465 83 396 q 25 624 17 535 q 38 699 28 658 q 67 781 47 740 q 120 862 88 823 q 203 932 153 901 q 320 983 252 963 q 481 1006 389 1003 q 577 1006 526 1008 q 679 992 628 1003 q 778 957 730 981 q 869 893 827 934 m 210 672 q 209 694 214 683 q 194 710 205 705 q 184 712 190 712 q 168 707 176 712 q 157 694 160 702 l 153 685 q 153 664 149 675 q 169 649 158 653 q 180 647 174 647 q 195 651 188 647 q 206 664 202 656 l 210 672 m 392 823 l 394 823 q 413 830 405 823 q 422 849 421 837 q 416 869 424 860 q 397 879 408 878 l 389 879 q 337 870 366 879 q 281 845 308 861 q 231 809 253 830 q 198 765 208 788 q 197 743 193 754 q 212 727 201 733 q 224 725 218 725 q 249 741 242 725 q 274 772 257 757 q 313 798 292 786 q 354 816 333 809 q 388 823 374 823 l 392 823 m 433 551 q 444 518 430 528 q 480 508 458 508 q 525 516 501 508 q 564 533 548 523 q 559 555 562 543 q 549 576 556 566 q 533 595 543 587 q 509 609 524 604 q 495 611 502 611 q 474 607 485 611 q 455 594 464 602 q 441 575 447 586 q 433 551 435 564 z "},"\u0000":{"ha":0,"x_min":0,"x_max":0,"o":""},"\r":{"ha":347,"x_min":0,"x_max":0,"o":""}," ":{"ha":361,"x_min":0,"x_max":0,"o":""},",":{"ha":460,"x_min":37,"x_max":423,"o":"m 393 -26 q 422 -126 421 -69 q 397 -244 423 -183 q 363 -302 386 -269 q 310 -366 340 -334 q 249 -427 281 -399 q 187 -471 216 -455 q 136 -484 163 -484 q 96 -476 115 -484 q 63 -451 77 -467 q 39 -392 40 -425 q 59 -330 38 -359 q 80 -299 73 -311 q 88 -278 86 -286 q 89 -266 90 -270 q 87 -260 88 -262 q 57 -216 68 -240 q 41 -164 45 -191 q 40 -109 37 -137 q 55 -55 44 -81 q 121 23 77 -5 q 222 50 165 50 q 288 43 260 50 q 336 25 315 36 q 370 0 356 14 q 393 -26 384 -13 m 208 -108 q 224 -94 219 -105 q 225 -72 229 -83 q 214 -58 222 -63 q 198 -53 207 -53 q 182 -58 190 -53 q 167 -68 174 -62 q 156 -82 160 -74 q 149 -97 151 -90 q 154 -118 147 -108 q 172 -130 160 -128 q 191 -126 183 -130 q 203 -112 199 -123 q 208 -108 206 -109 z "},".":{"ha":451,"x_min":38,"x_max":415,"o":"m 392 -40 q 409 -88 404 -62 q 413 -139 415 -113 q 402 -191 411 -165 q 379 -239 394 -217 q 315 -299 353 -278 q 229 -319 276 -319 q 220 -319 224 -319 q 210 -319 215 -319 q 131 -295 164 -315 q 77 -249 98 -276 q 47 -189 56 -222 q 39 -124 38 -156 q 52 -62 40 -93 q 86 -6 64 -31 q 143 35 109 19 q 222 50 176 50 q 325 27 281 50 q 392 -40 369 3 m 192 -99 q 208 -84 203 -94 q 208 -62 213 -74 q 181 -44 201 -44 q 166 -48 174 -44 q 151 -58 158 -52 q 139 -72 144 -65 q 133 -87 134 -80 q 137 -108 131 -99 q 156 -119 144 -117 q 161 -120 158 -120 q 177 -115 170 -120 q 188 -101 184 -110 q 192 -99 190 -99 z "},"A":{"ha":1207,"x_min":10,"x_max":1197,"o":"m 368 474 q 367 496 372 485 q 351 511 363 507 q 342 513 346 513 q 326 508 333 513 q 315 494 319 503 l 306 469 q 306 448 301 458 q 322 433 310 437 q 332 431 327 431 q 348 435 340 431 q 358 449 355 440 l 368 474 m 656 471 q 651 509 656 490 q 640 545 647 529 q 623 573 633 562 q 603 583 614 583 q 585 572 594 583 q 569 543 576 560 q 557 505 562 526 q 553 467 553 485 q 555 442 553 454 q 563 420 558 430 q 579 406 569 411 q 603 400 589 400 q 629 406 619 400 q 645 423 639 413 q 653 446 651 433 q 656 471 656 458 m 537 779 q 544 800 544 788 q 534 819 543 812 q 515 826 525 826 q 494 817 503 826 q 453 763 474 793 q 415 703 433 733 q 384 643 398 672 q 363 592 371 615 q 364 570 359 581 q 381 556 369 560 q 385 555 383 555 q 390 555 388 555 q 406 560 399 555 q 417 574 413 565 q 436 620 424 594 q 465 675 449 647 q 500 731 481 703 q 537 779 518 758 m 1185 63 q 1186 -82 1197 -17 q 1149 -193 1176 -146 q 1085 -270 1123 -240 q 1007 -312 1048 -301 q 950 -319 980 -319 q 883 -309 917 -319 q 814 -274 848 -298 q 750 -210 781 -249 q 695 -112 719 -170 q 671 -43 681 -79 q 653 26 661 -8 q 642 66 648 44 q 630 107 636 88 q 616 139 623 126 q 601 152 609 151 q 590 138 597 151 q 577 105 584 124 q 565 64 571 85 q 555 25 559 42 q 535 -44 546 -8 q 511 -112 525 -79 q 456 -210 487 -170 q 392 -274 426 -249 q 323 -309 358 -298 q 256 -319 288 -319 q 199 -312 226 -319 q 121 -270 158 -301 q 57 -193 83 -240 q 20 -82 31 -146 q 22 63 10 -17 q 48 169 30 109 q 92 297 66 229 q 149 435 118 364 q 214 573 181 506 q 282 701 248 641 q 347 808 316 762 q 477 957 411 906 q 604 1008 543 1008 l 608 1008 q 860 808 728 1008 q 924 701 890 762 q 992 573 958 641 q 1057 435 1026 506 q 1115 297 1089 364 q 1159 169 1141 229 q 1185 63 1177 108 z "},"B":{"ha":1191,"x_min":31,"x_max":1172,"o":"m 913 412 q 1016 363 968 394 q 1100 288 1065 332 q 1153 190 1135 244 q 1167 69 1172 135 q 1135 -47 1162 8 q 1063 -147 1108 -101 q 954 -226 1017 -192 q 810 -283 890 -261 q 683 -309 747 -301 q 555 -317 618 -317 q 425 -308 488 -317 q 309 -282 362 -299 q 215 -239 256 -265 q 150 -181 174 -214 q 92 -77 115 -133 q 56 41 69 -21 q 36 166 42 102 q 31 291 31 229 q 35 411 31 353 q 46 520 40 469 q 59 610 52 570 q 72 676 66 650 q 112 787 85 738 q 176 874 139 836 q 259 937 214 911 q 353 980 305 963 q 452 1004 402 997 q 550 1012 503 1012 q 649 1004 597 1012 q 750 981 700 997 q 848 941 801 965 q 932 883 894 917 q 997 807 970 850 q 1033 712 1023 765 q 913 412 1070 510 m 522 685 q 506 668 512 681 q 497 639 499 656 q 494 604 494 622 q 499 569 495 585 q 512 541 503 555 q 536 527 520 527 q 554 532 540 527 q 582 547 567 537 q 609 573 597 557 q 622 610 621 589 q 611 644 622 631 q 589 665 601 658 q 557 681 574 675 q 529 686 540 686 q 522 685 526 686 m 253 544 q 250 565 256 556 q 232 577 244 574 q 226 578 230 578 q 208 571 216 578 q 199 555 200 565 l 194 538 q 199 516 192 526 q 217 504 205 507 q 222 503 219 503 q 240 510 232 503 q 250 526 248 516 l 253 544 m 399 794 q 418 805 410 797 q 424 825 425 813 q 413 844 422 837 q 392 850 404 851 q 332 830 363 847 q 275 788 301 814 q 231 727 249 761 q 209 653 213 692 q 215 632 208 641 q 235 622 223 624 q 255 629 247 622 q 265 648 264 635 q 278 691 267 668 q 307 735 290 715 q 349 772 325 756 q 399 794 372 788 m 622 19 q 642 43 632 29 q 650 74 651 56 q 638 108 649 92 q 611 134 627 124 q 576 151 595 145 q 538 158 556 158 q 501 137 516 158 q 483 81 486 116 q 482 48 481 65 q 488 18 483 32 q 501 -5 493 4 q 522 -17 510 -15 q 543 -17 531 -19 q 569 -10 556 -15 q 597 2 583 -6 q 622 19 610 10 z "},"C":{"ha":1015,"x_min":24,"x_max":996,"o":"m 369 703 q 381 721 379 710 q 376 742 383 733 q 353 754 367 754 q 331 745 342 754 q 317 726 320 736 q 318 705 313 715 q 334 690 323 694 q 339 689 337 690 q 343 689 341 689 q 365 699 356 689 l 368 702 q 369 703 369 702 m 430 752 q 449 759 441 752 q 489 786 465 773 q 540 808 513 799 q 598 824 568 818 q 656 829 628 829 q 694 826 674 829 q 715 830 706 824 q 727 848 724 836 q 723 869 729 860 q 704 881 716 878 q 656 885 681 885 q 591 880 624 885 q 525 863 557 874 q 463 836 492 851 q 412 802 434 821 q 402 783 403 794 q 408 762 401 772 q 430 752 417 752 m 960 98 q 990 8 983 54 q 986 -82 996 -37 q 951 -168 976 -126 q 885 -243 926 -209 q 777 -301 840 -282 q 642 -320 715 -320 q 510 -306 578 -320 q 378 -260 443 -291 q 228 -166 294 -222 q 117 -40 163 -110 q 48 112 72 31 q 24 281 24 193 q 48 489 24 394 q 113 661 72 584 q 211 799 154 739 q 334 902 268 859 q 474 970 401 944 q 621 1004 547 996 q 647 1006 634 1006 q 671 1007 659 1007 q 830 971 760 1007 q 941 866 899 935 q 974 788 963 829 q 985 703 985 746 q 974 621 985 661 q 940 547 963 581 q 913 514 930 532 q 870 479 895 495 q 810 453 844 463 q 732 442 776 442 q 704 443 718 442 q 674 447 690 444 q 640 452 656 451 q 610 453 624 453 q 555 446 580 453 q 513 425 531 440 q 484 389 494 411 q 473 334 474 366 q 483 284 472 308 q 514 244 494 260 q 592 219 545 219 q 646 228 618 219 q 687 236 667 233 q 726 239 707 239 q 803 228 767 239 q 869 197 839 217 q 922 152 899 178 q 960 98 945 126 z "},"D":{"ha":1143,"x_min":30,"x_max":1198,"o":"m 576 205 q 598 230 588 215 q 615 263 608 244 q 626 304 622 282 q 630 349 630 326 q 619 422 630 390 q 589 474 609 453 q 568 489 579 484 q 545 494 556 494 q 523 472 533 494 q 507 407 513 449 q 502 341 503 377 q 505 274 501 306 q 516 220 508 243 q 537 194 524 198 q 576 205 556 190 m 219 461 q 240 469 231 461 q 248 489 248 477 l 248 507 q 242 527 249 519 q 223 538 235 536 q 202 532 211 540 q 192 513 193 524 q 191 507 191 511 q 191 498 191 503 l 191 490 q 199 469 191 478 q 219 461 208 461 m 367 787 q 386 798 379 789 q 390 819 392 808 q 379 838 388 831 q 358 842 369 844 q 298 816 326 837 q 248 762 269 794 q 213 687 226 729 q 198 599 200 645 q 205 578 197 587 q 225 569 213 569 l 226 569 q 245 576 238 569 q 254 596 253 584 q 257 616 255 601 q 265 651 260 631 q 280 693 271 671 q 301 735 288 715 q 330 768 313 754 q 367 787 346 783 m 1039 686 q 1047 57 1198 371 q 937 -103 1001 -36 q 799 -215 872 -170 q 649 -282 726 -259 q 504 -311 573 -306 q 455 -313 479 -313 q 357 -305 403 -313 q 271 -279 310 -296 q 199 -237 231 -262 q 145 -181 167 -212 q 76 -39 101 -118 q 41 124 51 40 q 31 291 30 208 q 38 449 31 375 q 54 582 44 523 q 70 676 63 642 q 125 817 86 756 q 218 918 163 877 q 343 978 274 958 q 491 999 413 999 q 658 976 575 999 q 814 912 741 953 q 945 813 887 871 q 1039 686 1004 756 z "},"E":{"ha":1032,"x_min":24,"x_max":1013,"o":"m 973 102 q 1003 23 994 67 q 1006 -67 1013 -21 q 976 -158 1000 -112 q 905 -243 951 -203 q 799 -299 861 -281 q 665 -318 738 -318 q 530 -302 599 -318 q 392 -255 460 -287 q 236 -157 305 -215 q 121 -28 168 -99 q 49 124 74 42 q 24 296 24 206 q 50 508 24 413 q 120 678 76 603 q 225 811 165 754 q 354 908 285 868 q 495 972 422 948 q 640 1004 569 995 q 666 1007 653 1006 q 692 1008 679 1008 q 847 970 778 1008 q 956 863 915 933 q 990 780 979 824 q 999 692 1000 736 q 985 608 998 649 q 947 534 972 567 q 922 506 938 521 q 885 478 907 491 q 836 458 864 466 q 774 449 808 449 q 693 460 737 449 q 654 468 672 466 q 619 470 635 470 q 557 461 582 470 q 519 438 533 451 q 510 425 513 430 q 509 418 508 419 q 518 414 510 416 q 542 412 526 412 q 573 414 555 412 q 615 422 590 416 q 631 424 623 424 q 644 425 638 425 q 680 418 665 425 q 706 399 695 411 q 721 369 716 386 q 726 333 726 353 q 720 298 726 315 q 703 268 714 281 q 677 247 692 255 q 641 240 661 240 q 617 242 628 240 q 554 251 581 251 q 514 243 520 251 q 517 231 513 240 q 532 212 521 222 q 592 193 554 193 q 661 207 623 193 q 712 221 688 217 q 760 226 736 226 q 828 216 796 226 q 887 190 860 206 q 936 150 915 173 q 973 102 958 128 m 365 703 q 376 721 374 710 q 371 742 378 733 q 348 754 363 754 q 326 745 338 754 q 312 726 315 736 q 313 705 308 715 q 329 690 318 694 q 334 689 332 690 q 338 689 336 689 q 360 699 351 689 l 363 702 q 365 703 364 702 m 425 752 q 444 759 436 752 q 484 786 460 773 q 535 808 508 799 q 593 824 563 818 q 651 829 623 829 q 689 826 669 829 q 710 830 701 824 q 722 848 719 836 q 718 869 724 860 q 699 881 711 878 q 651 885 676 885 q 586 880 619 885 q 520 863 552 874 q 458 836 488 851 q 407 802 429 821 q 397 783 398 794 q 403 762 396 772 q 425 752 412 752 z "},"F":{"ha":1008,"x_min":28,"x_max":993,"o":"m 196 461 q 216 469 208 461 q 224 489 224 477 l 224 507 q 218 527 225 519 q 199 538 210 536 q 178 532 187 540 q 167 513 169 524 l 167 490 q 175 469 167 478 q 195 461 183 461 l 196 461 m 369 778 q 388 790 381 781 q 392 810 394 799 q 381 829 390 822 q 360 833 372 835 q 295 808 328 828 q 237 756 263 788 q 193 685 210 725 q 174 599 176 644 q 181 578 173 587 q 201 569 189 569 l 202 569 q 222 576 214 569 q 231 596 230 584 q 233 614 231 600 q 242 645 236 627 q 258 684 248 664 q 284 724 269 705 q 320 757 299 743 q 369 778 342 772 m 949 864 q 982 777 972 823 q 992 686 993 731 q 977 599 990 641 q 938 525 963 558 q 778 449 877 449 q 700 460 742 449 q 625 472 660 472 q 567 463 591 472 q 530 440 543 453 q 519 426 522 432 q 517 418 517 419 q 527 414 519 416 q 551 412 535 412 q 581 414 563 412 q 623 422 599 416 q 639 424 631 424 q 653 425 646 425 q 683 420 671 425 q 703 409 696 415 q 727 377 719 397 q 734 333 735 358 q 728 298 734 315 q 711 268 722 281 q 684 247 700 255 q 649 240 668 240 q 625 242 636 240 q 591 249 607 247 q 563 251 575 251 q 522 243 528 251 q 524 228 521 238 q 531 202 526 217 q 541 161 535 185 q 552 105 547 138 q 561 29 558 72 q 563 -71 564 -15 q 541 -175 562 -131 q 488 -251 521 -220 q 415 -297 456 -281 q 331 -316 374 -313 q 322 -317 326 -317 q 314 -317 318 -317 q 229 -303 272 -317 q 151 -262 187 -290 q 89 -192 115 -235 q 55 -90 63 -149 q 46 -18 51 -60 q 37 75 41 25 q 31 182 33 126 q 28 297 28 239 q 31 412 28 355 q 41 521 34 469 q 83 700 55 626 q 151 825 112 774 q 240 906 191 875 q 345 954 290 936 q 463 981 401 972 q 587 997 524 990 q 617 1000 602 999 q 647 1004 632 1002 q 672 1006 660 1006 q 695 1007 683 1007 q 844 970 778 1007 q 949 864 909 933 z "},"G":{"ha":1089,"x_min":23,"x_max":1067,"o":"m 818 413 q 909 391 864 408 q 990 344 954 374 q 1046 275 1025 315 q 1065 183 1067 235 q 1059 117 1065 153 q 1042 42 1053 81 q 1016 -38 1031 2 q 980 -116 1000 -78 q 936 -187 960 -154 q 885 -243 913 -219 q 777 -301 840 -282 q 641 -320 714 -320 q 510 -306 577 -320 q 377 -260 443 -291 q 228 -166 294 -222 q 117 -40 163 -110 q 47 112 71 31 q 23 281 23 193 q 47 488 23 393 q 112 659 71 582 q 210 796 153 736 q 334 899 267 856 q 473 969 400 942 q 620 1004 546 995 q 645 1006 633 1006 q 669 1007 657 1007 q 815 973 750 1007 q 919 874 879 940 q 955 793 943 836 q 967 706 967 750 q 955 620 967 663 q 919 544 943 578 q 836 468 886 494 q 724 443 787 443 q 674 447 700 443 q 640 452 656 451 q 610 453 624 453 q 512 426 549 453 q 473 334 475 399 q 478 291 472 315 q 494 245 484 267 q 518 206 505 223 q 546 183 532 189 q 560 188 549 182 q 583 213 572 194 q 586 222 586 219 q 582 231 586 224 q 571 253 576 239 q 570 288 565 267 q 594 341 576 317 q 638 381 611 365 q 699 407 665 398 q 774 416 734 416 q 795 415 785 416 q 818 413 806 415 m 370 703 q 382 721 380 710 q 376 742 383 733 q 353 754 368 754 q 332 745 342 754 q 317 726 321 735 q 319 704 314 715 q 335 690 324 694 q 344 689 341 689 q 366 699 358 689 l 369 702 q 370 703 369 702 m 431 752 q 449 759 442 752 q 489 786 465 773 q 541 808 513 799 q 599 824 569 818 q 656 829 628 829 q 694 826 675 829 q 716 830 706 824 q 728 848 726 836 q 723 869 730 860 q 705 881 717 878 q 656 885 682 885 q 591 880 625 885 q 525 863 558 874 q 464 836 493 851 q 413 802 435 821 q 402 783 403 794 q 409 762 401 772 q 431 752 417 752 z "},"H":{"ha":1326,"x_min":38,"x_max":1290,"o":"m 210 510 q 202 530 210 522 q 182 538 194 538 q 162 530 170 538 q 153 510 153 522 l 153 488 q 162 468 153 476 q 182 460 170 460 q 202 468 194 460 q 210 488 210 476 l 210 510 m 872 510 q 864 530 872 522 q 844 538 856 538 q 824 530 832 538 q 815 510 815 522 l 815 488 q 824 468 815 476 q 844 460 832 460 q 864 468 856 460 q 872 488 872 476 l 872 510 m 282 817 q 296 833 292 822 q 294 855 299 844 q 269 870 286 870 q 256 867 263 870 q 214 830 233 854 q 182 770 195 805 q 163 694 169 736 q 158 606 156 653 q 166 587 158 594 q 186 579 174 579 l 187 579 q 207 588 199 579 q 214 608 215 596 q 216 666 213 639 q 225 717 219 694 l 244 770 q 282 817 260 806 m 944 817 q 958 833 954 822 q 956 855 961 844 q 945 866 952 863 q 931 870 939 870 q 918 867 925 870 q 876 830 894 854 q 844 770 857 805 q 825 694 831 736 q 819 606 818 653 q 828 587 820 594 q 848 579 836 579 l 849 579 q 868 588 860 579 q 876 608 876 596 q 878 666 875 639 q 887 717 881 694 l 906 770 q 944 817 922 806 m 1265 750 q 1284 541 1279 652 q 1287 318 1290 429 q 1275 105 1284 208 q 1251 -78 1265 3 q 1213 -188 1240 -143 q 1150 -261 1185 -233 q 1075 -302 1115 -289 q 999 -315 1035 -315 l 997 -315 q 914 -301 956 -315 q 836 -259 872 -287 q 772 -186 799 -230 q 733 -81 745 -142 q 714 62 721 -19 q 703 239 706 143 l 619 239 q 607 70 615 151 q 587 -78 599 -10 q 555 -175 578 -131 q 500 -249 533 -218 q 425 -297 467 -280 q 335 -315 383 -314 l 332 -315 q 250 -301 292 -315 q 172 -259 208 -287 q 108 -186 135 -230 q 69 -81 81 -142 q 51 44 58 -25 q 41 187 44 113 q 39 338 38 261 q 43 488 39 415 q 53 625 47 560 q 69 740 60 690 q 110 861 81 810 q 177 945 139 913 q 259 993 215 978 q 344 1009 302 1009 q 423 994 382 1008 q 499 950 463 981 q 562 870 535 919 q 600 750 589 821 q 616 605 610 683 q 623 440 622 526 l 705 440 q 716 605 708 528 q 733 740 723 681 q 775 861 746 810 q 841 945 803 913 q 923 993 879 978 q 1009 1009 967 1009 q 1087 994 1047 1008 q 1164 950 1128 981 q 1226 870 1199 919 q 1265 750 1253 821 z "},"I":{"ha":662,"x_min":38,"x_max":625,"o":"m 600 750 q 620 541 615 652 q 622 318 625 429 q 610 105 619 208 q 587 -78 601 3 q 557 -170 578 -127 q 503 -245 535 -213 q 427 -297 471 -278 q 332 -315 384 -315 q 249 -301 291 -315 q 172 -259 208 -287 q 108 -186 135 -231 q 69 -81 81 -142 q 51 43 58 -25 q 41 186 44 112 q 39 338 38 261 q 43 487 40 415 q 53 625 47 560 q 69 741 60 690 q 101 843 78 794 q 158 928 124 891 q 240 987 193 965 q 344 1009 287 1009 q 422 994 382 1008 q 499 950 463 981 q 562 870 535 919 q 600 750 589 821 m 217 510 q 208 530 217 522 q 188 538 200 538 q 168 530 176 538 q 160 510 160 522 l 160 488 q 168 468 160 476 q 188 460 176 460 q 208 468 200 460 q 217 488 217 476 l 217 510 m 289 817 q 302 833 299 822 q 301 855 306 844 q 276 870 292 870 q 263 867 269 870 q 220 830 239 854 q 189 770 201 805 q 169 694 176 736 q 164 606 163 653 q 173 587 165 594 q 192 579 181 579 l 193 579 q 213 588 205 579 q 221 608 221 596 q 223 666 219 639 q 231 717 226 694 l 250 770 q 289 817 268 806 z "},"J":{"ha":845,"x_min":8,"x_max":810,"o":"m 794 783 q 801 700 798 750 q 807 589 804 649 q 810 463 809 529 q 809 331 810 397 q 805 205 808 266 q 795 94 801 144 q 750 -94 781 -18 q 665 -219 720 -171 q 528 -291 610 -267 q 327 -320 446 -314 q 317 -320 322 -320 q 307 -321 312 -321 q 155 -285 221 -321 q 50 -181 90 -249 q 19 -105 29 -146 q 8 -24 8 -65 q 17 54 8 16 q 46 122 26 92 q 106 178 70 160 q 185 192 142 197 q 211 190 199 191 q 235 190 224 190 q 319 211 298 190 q 333 278 338 230 q 327 319 332 291 q 315 398 322 351 q 302 503 308 445 q 292 627 296 561 q 289 761 288 692 q 312 869 290 823 q 369 947 334 915 q 447 994 403 978 q 533 1012 490 1010 l 542 1012 q 627 999 585 1012 q 705 957 669 985 q 764 886 740 929 q 794 783 788 843 m 448 465 q 467 475 460 467 q 474 496 475 484 l 472 519 q 462 539 471 531 q 442 546 453 547 q 422 536 430 544 q 416 515 415 527 l 417 491 q 427 472 419 478 q 448 465 436 465 m 488 831 q 502 847 499 836 q 500 869 506 858 q 475 884 492 884 q 462 881 469 884 q 422 839 435 867 q 402 774 408 810 q 399 694 397 737 q 404 610 400 652 q 414 591 406 597 q 435 584 423 584 q 454 594 447 585 q 460 615 462 603 q 458 757 452 702 l 464 792 q 488 831 472 823 z "},"K":{"ha":1115,"x_min":38,"x_max":1094,"o":"m 1059 56 q 1089 -7 1084 28 q 1085 -77 1094 -41 q 1056 -149 1076 -113 q 1007 -214 1035 -184 q 963 -254 987 -235 q 914 -287 940 -273 q 860 -309 888 -301 q 806 -317 833 -317 q 760 -310 783 -317 q 717 -287 738 -303 q 662 -228 685 -264 q 614 -150 638 -193 q 593 -114 604 -132 q 569 -76 582 -95 q 536 -185 561 -139 q 474 -261 510 -231 q 396 -305 438 -291 q 310 -319 353 -319 q 226 -305 269 -319 q 147 -260 183 -290 q 85 -183 110 -230 q 52 -74 59 -137 q 45 22 48 -38 q 41 155 42 82 q 39 309 39 228 q 40 467 38 390 q 45 612 42 544 q 55 728 49 680 q 83 835 63 784 q 138 926 103 887 q 220 988 172 965 q 329 1010 268 1010 q 413 993 371 1010 q 491 942 456 976 q 552 859 527 909 q 585 741 578 809 q 617 789 602 765 q 645 833 631 812 q 695 911 672 877 q 747 967 719 945 q 849 1003 794 1003 q 921 987 885 1003 q 990 936 957 970 q 1042 862 1020 904 q 1073 776 1064 820 q 1074 690 1081 732 q 1040 617 1067 649 q 993 566 1019 592 q 937 516 967 541 q 875 465 907 490 q 812 415 844 440 q 783 392 797 403 q 755 370 769 381 q 752 365 752 367 q 768 331 752 351 q 809 285 784 310 q 863 235 833 261 q 918 187 892 210 q 994 120 957 153 q 1059 56 1032 87 m 203 510 q 195 530 203 522 q 176 538 188 538 q 156 530 164 538 q 147 510 147 522 l 147 488 q 156 468 147 476 q 176 460 164 460 q 195 468 188 460 q 203 488 203 476 l 203 510 m 270 824 q 284 841 281 829 q 282 862 288 852 q 271 873 278 869 q 256 877 264 877 q 244 874 249 877 q 200 833 218 861 q 171 767 182 804 q 155 689 160 731 q 151 606 150 647 q 160 587 151 594 q 180 579 168 579 q 200 588 192 579 q 208 608 208 596 q 211 681 206 647 q 223 742 215 715 l 229 763 q 249 802 238 786 q 270 824 259 818 z "},"L":{"ha":1004,"x_min":38,"x_max":999,"o":"m 936 161 q 976 94 961 131 q 994 18 990 58 q 992 -62 999 -22 q 968 -140 986 -103 q 842 -273 928 -226 q 638 -320 756 -320 q 606 -320 622 -320 q 574 -321 590 -320 l 515 -321 q 403 -317 457 -321 q 301 -301 349 -314 q 213 -262 253 -287 q 139 -194 172 -237 q 84 -86 107 -151 q 51 68 62 -22 q 43 180 46 118 q 39 310 40 242 q 40 447 38 378 q 44 578 41 516 q 51 693 47 641 q 60 781 55 746 q 93 883 68 840 q 154 953 119 926 q 230 994 189 981 q 313 1008 272 1008 q 410 989 366 1008 q 486 937 455 970 q 536 859 518 904 q 555 761 554 814 q 552 627 556 692 q 542 503 549 561 q 529 398 536 445 q 517 319 522 351 q 510 278 512 291 q 525 233 508 247 q 592 215 545 215 q 638 219 613 215 q 693 231 664 223 q 765 240 731 240 q 860 220 816 240 q 936 161 903 201 m 193 510 q 185 530 193 522 q 165 538 176 538 q 144 530 153 538 q 136 510 136 522 l 136 488 q 144 468 136 476 q 165 460 153 460 q 185 468 176 460 q 193 488 193 476 l 193 510 m 253 831 q 267 847 264 836 q 265 869 271 858 q 240 884 258 884 q 227 881 234 884 q 184 838 201 867 q 157 770 167 808 q 143 690 147 733 q 140 606 140 647 q 149 587 140 594 q 169 579 158 579 q 189 588 181 579 q 197 608 197 596 q 199 686 196 649 q 210 753 203 723 q 229 803 218 783 q 253 831 240 824 z "},"M":{"ha":1593,"x_min":28,"x_max":1567,"o":"m 1226 1007 q 1321 949 1275 999 q 1407 822 1367 899 q 1478 648 1447 745 q 1530 445 1510 550 q 1559 234 1551 340 q 1558 35 1567 128 q 1477 -229 1544 -138 q 1301 -320 1411 -320 q 1098 -241 1175 -320 q 1035 -147 1058 -201 q 1001 -34 1013 -92 q 986 83 989 24 q 983 190 983 141 q 953 119 970 155 q 914 53 936 83 q 862 5 891 24 q 797 -13 833 -13 q 731 5 760 -13 q 680 53 702 24 q 640 119 657 83 q 610 190 623 155 q 607 83 610 141 q 592 -34 604 24 q 558 -147 581 -92 q 495 -241 535 -201 q 292 -320 418 -320 q 116 -229 182 -320 q 35 35 49 -138 q 32 182 28 105 q 45 339 35 260 q 73 497 56 418 q 114 648 91 576 q 166 782 138 719 q 227 893 194 845 q 294 971 259 941 q 367 1007 330 1001 q 393 1010 381 1009 q 417 1012 406 1012 q 499 998 462 1012 q 566 962 535 985 q 622 910 597 940 q 667 847 647 880 q 705 781 688 815 q 735 718 722 748 q 751 686 742 703 q 767 654 759 669 q 783 628 776 639 q 796 616 791 618 q 809 628 801 618 q 826 654 817 639 q 842 686 834 669 q 858 718 851 703 q 889 781 872 748 q 926 847 906 815 q 971 910 946 880 q 1026 962 996 940 q 1094 998 1057 985 q 1175 1012 1131 1012 q 1199 1010 1187 1012 q 1226 1007 1212 1009 m 247 475 q 248 497 252 486 q 233 513 244 508 q 222 515 228 515 q 196 498 203 515 q 189 480 190 485 q 188 471 188 475 q 195 451 188 459 q 215 442 203 442 q 233 449 226 442 q 243 465 241 455 q 244 468 244 466 q 246 472 245 470 q 247 475 247 473 m 404 837 q 419 852 415 842 q 418 874 423 863 q 407 886 415 882 q 392 890 400 890 q 381 888 386 890 q 335 853 356 877 q 297 798 315 828 q 266 734 280 767 q 242 670 252 701 q 226 617 233 640 q 219 584 220 594 q 223 563 217 572 q 242 551 230 553 q 263 556 253 551 q 274 574 272 561 q 284 614 277 590 q 300 665 290 638 q 322 719 310 692 q 347 770 333 747 q 375 812 360 794 q 404 837 390 830 m 1019 617 q 1019 638 1024 627 q 1004 654 1015 649 q 993 656 999 656 q 978 652 985 656 q 967 640 971 647 q 960 622 962 626 q 958 613 958 617 q 967 592 958 601 q 987 584 975 584 q 1005 590 997 584 q 1015 606 1013 597 l 1019 617 m 1154 824 q 1170 838 1165 828 q 1172 860 1176 849 q 1159 877 1169 872 q 1137 878 1149 882 q 1089 850 1111 870 q 1048 805 1066 829 q 1017 755 1030 780 q 999 713 1004 730 q 1000 691 994 702 q 1016 677 1005 681 q 1020 676 1018 676 q 1025 676 1023 676 q 1041 681 1034 676 q 1052 694 1049 685 q 1069 732 1058 712 q 1094 772 1080 753 q 1123 805 1108 791 q 1154 824 1139 819 z "},"N":{"ha":1465,"x_min":33,"x_max":1431,"o":"m 1351 890 q 1411 667 1391 789 q 1430 414 1431 545 q 1408 145 1429 282 q 1346 -120 1387 9 q 1308 -199 1332 -163 q 1253 -260 1285 -235 q 1182 -300 1222 -286 q 1096 -315 1142 -315 q 1014 -302 1054 -315 q 936 -267 973 -290 q 866 -211 899 -244 q 810 -137 834 -178 q 742 -21 776 -81 q 677 94 708 39 q 633 171 656 133 q 593 241 611 210 l 593 238 q 596 173 594 208 q 597 99 597 138 q 594 18 597 60 q 585 -62 592 -23 q 554 -160 577 -115 q 495 -240 531 -206 q 413 -294 459 -274 q 312 -314 366 -314 q 232 -301 269 -314 q 164 -263 194 -287 q 110 -204 133 -239 q 76 -126 88 -169 q 49 11 59 -65 q 36 173 38 88 q 38 347 33 258 q 57 521 43 435 q 92 684 70 606 q 145 825 114 762 q 218 931 177 888 q 310 991 259 974 q 363 1004 338 1000 q 410 1008 388 1008 q 495 993 457 1008 q 565 953 533 978 q 622 896 596 928 q 668 828 647 863 q 705 758 689 793 q 735 692 722 723 l 749 662 q 757 644 752 654 q 767 621 761 633 q 781 586 772 607 q 800 543 790 566 q 820 497 810 520 q 841 453 831 473 q 842 468 842 460 q 842 483 842 475 q 845 547 844 513 q 849 619 847 581 q 856 695 852 656 q 867 772 860 733 q 898 868 876 824 q 956 946 921 913 q 1036 998 990 979 q 1135 1016 1081 1016 q 1204 1007 1171 1016 q 1265 982 1237 999 q 1315 942 1293 965 q 1351 890 1338 919 m 258 550 q 255 572 261 562 q 237 584 249 581 q 231 585 235 585 q 206 570 213 585 q 199 541 199 556 q 208 520 199 529 q 228 512 216 512 q 248 520 240 512 q 256 540 256 528 l 258 550 m 363 817 q 373 835 372 824 q 367 856 374 847 q 344 867 358 867 q 327 861 335 867 q 297 828 314 851 q 264 777 280 806 q 237 716 249 748 q 222 656 225 684 q 227 635 220 644 q 247 624 235 626 q 250 624 247 624 q 268 631 260 624 q 278 649 276 638 q 291 700 281 673 q 315 750 302 726 q 341 792 328 774 q 363 817 354 810 m 1010 614 q 1002 634 1010 626 q 982 642 994 642 q 962 634 970 642 q 953 614 953 626 l 953 602 q 962 582 953 590 q 982 574 970 574 q 1002 582 994 574 q 1010 602 1010 590 l 1010 614 m 1078 830 q 1090 848 1088 836 q 1085 869 1092 859 q 1062 881 1077 881 q 1047 876 1053 881 q 989 807 1010 852 q 965 703 967 762 q 973 683 965 692 q 992 674 981 675 q 1013 682 1004 674 q 1022 701 1021 690 q 1038 779 1023 745 q 1078 830 1053 813 z "},"O":{"ha":1244,"x_min":22,"x_max":1222,"o":"m 730 343 q 723 399 730 372 q 702 448 716 426 q 669 482 689 469 q 623 495 649 495 q 573 480 593 495 q 539 443 552 465 q 520 393 526 420 q 515 342 515 366 q 522 283 515 310 q 543 236 530 256 q 576 206 557 217 q 618 195 595 195 q 670 209 649 195 q 704 243 691 222 q 724 291 717 265 q 730 343 730 317 m 238 514 q 240 535 243 524 q 226 552 237 547 q 213 556 222 556 q 198 552 205 556 q 188 542 192 549 q 184 533 185 538 q 180 519 182 527 q 181 498 176 508 q 197 483 186 488 q 206 482 203 482 q 223 487 215 482 q 233 501 230 492 q 234 503 233 501 q 234 505 234 504 q 235 509 235 506 q 238 514 236 513 m 476 790 q 494 802 488 793 q 500 822 501 810 q 489 841 498 834 q 467 846 479 848 q 384 815 424 839 q 313 759 344 790 q 258 692 281 727 q 224 628 235 657 q 225 606 220 617 q 241 592 230 595 q 251 590 247 590 q 278 608 270 590 q 287 627 280 614 q 307 657 294 640 q 336 694 319 674 q 374 732 353 714 q 422 766 396 751 q 476 790 447 781 m 1142 686 q 1200 523 1181 608 q 1221 353 1220 439 q 1205 183 1222 267 q 1150 21 1187 99 q 1044 -134 1106 -72 q 910 -233 981 -195 q 765 -288 839 -270 q 624 -311 690 -306 q 305 -227 439 -311 q 94 21 171 -143 q 40 183 58 99 q 23 353 22 267 q 44 523 24 439 q 102 686 64 608 q 191 816 138 758 q 312 914 244 874 q 458 977 380 955 q 622 999 537 999 q 786 975 707 997 q 933 911 865 952 q 1055 813 1001 870 q 1142 686 1108 756 z "},"P":{"ha":1192,"x_min":38,"x_max":1172,"o":"m 1169 602 q 1137 418 1172 503 q 1035 270 1103 333 q 977 225 1010 248 q 899 185 943 203 q 799 156 854 167 q 675 145 743 145 q 643 146 659 145 q 609 148 626 147 q 599 43 605 91 q 586 -49 592 -4 l 582 -77 q 547 -185 573 -140 q 485 -261 521 -231 q 406 -306 449 -291 q 322 -320 364 -320 q 238 -306 280 -320 q 160 -262 196 -292 q 98 -187 124 -233 q 63 -80 72 -142 q 50 44 56 -24 q 42 184 44 111 q 39 331 39 256 q 41 475 38 405 q 48 609 43 546 q 61 724 53 673 q 90 819 69 778 q 138 890 111 860 q 195 938 165 919 q 250 968 224 956 q 294 984 276 979 q 319 990 313 988 q 419 1007 366 1001 q 531 1013 472 1013 q 665 1004 594 1013 q 806 975 736 995 q 941 924 876 956 q 1055 847 1005 892 q 1135 740 1105 801 q 1169 602 1166 680 m 226 482 q 217 502 226 494 q 197 510 209 510 q 177 502 185 510 q 169 482 169 494 l 169 460 q 177 440 169 448 q 197 432 185 432 q 217 440 209 432 q 226 460 226 448 l 226 482 m 291 789 q 305 806 301 794 q 303 827 308 817 q 278 842 295 842 q 265 839 272 842 q 219 797 238 825 q 191 733 201 769 q 176 657 180 697 q 173 578 172 617 q 182 558 173 566 q 202 551 190 551 q 222 560 214 551 q 229 580 230 568 q 232 647 228 615 q 242 706 235 679 l 254 741 q 291 789 269 778 m 631 467 q 669 474 650 467 q 705 491 689 480 q 732 517 721 501 q 744 551 742 533 q 735 582 745 569 q 715 606 726 596 q 670 633 696 622 q 626 644 644 644 q 620 643 622 644 q 615 642 618 643 q 595 630 603 640 q 582 607 587 621 q 576 577 577 593 q 576 544 574 560 q 595 488 580 509 q 631 467 610 467 z "},"Q":{"ha":1244,"x_min":22,"x_max":1222,"o":"m 618 195 q 669 209 648 195 q 704 244 690 222 q 724 291 717 265 q 730 343 730 317 q 723 399 730 372 q 702 448 716 426 q 669 482 689 469 q 622 495 649 495 q 573 480 593 495 q 539 443 552 465 q 520 393 526 420 q 515 342 515 367 q 522 283 515 310 q 543 236 530 256 q 576 206 557 217 q 618 195 595 195 m 238 515 q 240 535 243 524 q 226 552 236 547 q 213 556 222 556 q 199 552 204 556 q 190 544 193 549 q 184 532 186 539 q 180 519 182 526 q 181 498 176 508 q 197 483 185 488 q 206 482 203 482 q 223 487 215 482 q 233 501 230 492 q 234 503 233 501 q 234 505 234 504 q 238 515 235 510 m 476 790 q 494 802 488 793 q 499 822 501 810 q 489 841 498 834 q 467 846 479 848 q 384 815 424 839 q 313 759 344 790 q 258 692 281 727 q 224 628 235 657 q 225 606 220 617 q 241 592 230 596 q 251 590 247 590 q 277 608 270 590 q 286 627 279 614 q 306 657 294 640 q 336 694 319 674 q 374 732 353 714 q 422 766 396 751 q 476 790 447 781 m 1078 -93 q 1081 -95 1080 -94 q 1084 -98 1083 -97 q 1131 -157 1113 -125 q 1154 -221 1149 -188 q 1153 -287 1160 -254 q 1126 -351 1146 -321 q 1061 -412 1103 -387 q 965 -437 1019 -437 q 922 -432 944 -437 q 875 -418 899 -428 q 777 -370 827 -398 q 676 -310 727 -343 q 670 -306 674 -308 q 647 -308 658 -307 q 624 -310 636 -310 q 305 -226 439 -310 q 94 21 171 -142 q 40 183 58 99 q 23 353 22 267 q 44 523 24 439 q 101 686 63 608 q 191 816 137 758 q 312 914 244 874 q 458 977 380 955 q 622 999 537 999 q 786 975 707 997 q 933 911 865 952 q 1055 813 1001 870 q 1142 686 1108 756 q 1200 523 1181 608 q 1220 353 1219 439 q 1204 183 1222 267 q 1149 21 1186 99 q 1116 -41 1134 -12 q 1078 -93 1099 -69 z "},"R":{"ha":1206,"x_min":38,"x_max":1178,"o":"m 1138 34 q 1169 -22 1160 8 q 1174 -85 1178 -53 q 1152 -152 1169 -118 q 1106 -218 1135 -186 q 1060 -259 1085 -240 q 1007 -292 1035 -278 q 950 -314 979 -306 q 892 -322 921 -322 q 840 -315 865 -322 q 791 -290 814 -307 q 757 -255 775 -278 q 718 -202 738 -232 q 675 -135 697 -172 q 631 -62 653 -99 q 611 -30 621 -46 q 592 2 601 -14 q 591 -7 591 -3 q 589 -17 590 -12 q 585 -47 587 -32 q 581 -76 583 -61 q 547 -186 573 -140 q 486 -262 522 -232 q 407 -306 450 -292 q 321 -320 364 -320 q 236 -306 279 -320 q 158 -262 194 -292 q 96 -186 122 -232 q 63 -79 70 -141 q 51 43 56 -24 q 43 182 46 110 q 39 328 40 253 q 40 473 38 403 q 47 608 42 544 q 60 724 52 672 q 91 824 69 782 q 142 895 114 866 q 202 943 171 925 q 259 972 233 962 q 301 986 285 982 q 319 990 318 990 q 418 1007 365 1001 q 529 1013 472 1013 q 664 1004 592 1013 q 805 975 735 995 q 939 924 875 956 q 1053 847 1003 892 q 1134 740 1103 801 q 1167 602 1165 680 q 1154 474 1169 535 q 1107 361 1138 413 q 1030 268 1076 310 q 927 199 985 227 q 934 195 931 197 q 941 190 938 192 q 1041 122 990 159 q 1138 34 1093 85 m 204 482 q 196 502 204 494 q 176 510 188 510 q 156 502 164 510 q 147 482 147 494 l 147 460 q 156 440 147 448 q 176 432 164 432 q 196 440 188 432 q 204 460 204 448 l 204 482 m 269 789 q 283 806 280 794 q 281 827 287 817 q 256 842 274 842 q 243 839 250 842 q 198 797 216 825 q 169 733 180 769 q 155 657 158 697 q 151 578 151 617 q 160 558 151 566 q 181 551 169 551 q 200 560 192 551 q 208 580 208 568 q 210 648 206 615 q 221 706 214 680 l 233 741 q 269 789 248 778 m 742 552 q 734 582 744 569 q 714 605 724 596 q 669 633 694 622 q 624 644 643 644 q 614 643 617 644 q 594 631 602 640 q 581 607 585 621 q 574 577 576 593 q 575 544 573 560 q 594 488 578 509 q 630 467 609 467 q 668 474 649 467 q 703 491 688 480 q 730 518 719 502 q 742 552 741 533 z "},"S":{"ha":1134,"x_min":28,"x_max":1105,"o":"m 1087 175 q 1103 89 1101 133 q 1099 2 1105 44 q 1079 -77 1092 -40 q 1049 -142 1066 -115 q 958 -234 1013 -199 q 836 -288 903 -269 q 693 -315 769 -308 q 539 -322 617 -322 q 439 -320 488 -322 q 341 -316 389 -318 l 317 -315 q 159 -268 226 -311 q 58 -151 91 -226 q 35 -74 41 -114 q 33 5 28 -34 q 51 81 37 44 q 89 147 65 117 q 164 207 121 186 q 259 227 208 227 q 314 222 286 227 q 369 208 342 217 q 422 190 396 200 q 474 169 449 179 q 525 148 501 157 q 563 140 548 140 q 582 147 576 140 q 593 167 589 155 q 597 185 598 178 q 594 194 597 191 q 573 214 589 205 q 534 232 557 224 q 485 248 512 240 q 430 263 458 256 q 344 286 389 274 q 257 317 300 299 q 175 360 214 335 q 107 418 136 384 q 61 497 78 452 q 44 601 44 542 q 151 878 47 779 q 242 940 192 916 q 350 978 292 965 q 472 998 408 992 q 603 1003 536 1003 q 683 1001 643 1003 q 765 998 724 1000 q 930 943 860 994 q 1033 802 1000 892 q 1054 711 1050 758 q 1051 621 1058 665 q 1027 541 1044 578 q 981 477 1009 503 q 866 431 933 431 q 772 453 821 431 q 741 467 756 460 q 713 480 726 474 q 655 506 682 494 q 613 517 628 517 q 596 508 601 517 q 589 489 592 499 q 586 463 584 472 q 591 449 588 453 q 615 426 598 436 q 655 409 631 417 q 706 393 678 401 q 763 379 733 386 q 853 357 806 369 q 947 326 900 344 q 1033 267 998 306 q 1087 175 1069 229 m 220 603 q 212 623 220 615 q 192 631 203 631 q 172 623 180 631 q 163 603 163 615 l 163 590 q 172 570 163 578 q 192 562 180 562 q 212 570 203 562 q 220 590 220 578 l 220 603 m 404 809 q 424 818 416 809 q 431 838 432 826 q 422 858 431 850 q 401 865 413 865 q 306 845 347 863 q 236 802 265 827 q 192 747 208 776 q 174 693 177 718 q 180 672 173 681 q 199 662 188 663 q 220 668 211 662 q 231 688 229 674 q 235 699 231 690 q 249 722 240 708 q 273 750 258 735 q 306 777 287 765 q 350 799 325 790 q 404 809 374 808 z "},"T":{"ha":1395,"x_min":23,"x_max":1372,"o":"m 194 731 q 195 752 199 741 q 180 767 191 763 q 168 769 175 769 q 146 758 153 769 q 137 734 139 747 q 142 714 135 723 q 160 703 149 706 q 163 703 161 703 q 165 703 164 703 q 183 709 175 703 q 193 726 190 716 q 194 731 194 730 m 483 833 q 503 840 494 833 q 513 859 512 847 q 507 880 515 871 q 488 890 499 888 l 482 890 q 438 892 459 892 q 397 893 417 893 q 192 834 242 893 q 185 814 184 825 q 195 794 185 802 q 213 788 202 788 q 235 798 226 788 q 249 809 239 803 q 277 822 258 816 q 325 833 296 828 q 397 837 354 837 q 435 836 415 837 q 477 833 455 835 l 483 833 m 1147 981 q 1240 948 1198 971 q 1311 891 1281 924 q 1356 817 1340 858 q 1372 728 1372 776 q 1357 644 1372 688 q 1312 563 1342 601 q 1236 495 1282 524 q 1127 454 1190 467 q 1062 444 1096 449 q 991 435 1028 439 q 990 300 992 368 q 983 165 988 231 q 972 38 978 99 q 955 -78 965 -24 q 917 -188 944 -143 q 854 -261 890 -233 q 779 -302 819 -289 q 703 -315 740 -315 l 700 -315 q 618 -301 660 -315 q 540 -259 576 -287 q 476 -186 503 -230 q 437 -81 449 -142 q 421 26 428 -33 q 411 152 415 85 q 407 292 407 219 q 409 440 406 365 q 306 454 349 447 q 180 498 233 467 q 92 567 126 528 q 40 652 57 607 q 23 739 23 697 q 40 827 23 786 q 90 901 58 868 q 167 957 122 934 q 267 990 212 979 q 335 998 294 994 q 426 1005 376 1002 q 533 1008 476 1007 q 650 1009 590 1009 q 799 1007 724 1009 q 940 1002 874 1006 q 1060 993 1006 999 q 1147 981 1114 988 z "},"U":{"ha":1367,"x_min":34,"x_max":1333,"o":"m 1302 750 q 1326 555 1318 645 q 1332 382 1333 464 q 1320 224 1330 300 q 1290 72 1310 148 q 1259 -20 1279 26 q 1207 -110 1239 -67 q 1130 -192 1175 -153 q 1022 -259 1084 -231 q 878 -304 959 -287 q 694 -321 797 -321 q 556 -314 626 -321 q 419 -289 485 -306 q 294 -242 353 -271 q 188 -169 235 -212 q 108 -66 140 -126 q 63 72 76 -6 q 35 419 35 247 q 61 740 34 590 q 93 842 71 794 q 151 928 116 891 q 232 987 185 965 q 337 1009 279 1009 q 415 994 374 1008 q 491 950 455 981 q 553 870 526 919 q 592 750 581 821 q 613 521 608 647 q 613 257 618 394 q 629 212 611 231 q 675 192 647 193 q 722 209 703 192 q 741 256 741 227 q 742 389 740 322 q 747 519 743 456 q 757 639 751 582 q 771 740 763 695 q 803 842 781 794 q 860 928 826 891 q 942 987 895 965 q 1047 1009 989 1009 q 1125 994 1084 1008 q 1201 950 1165 981 q 1264 870 1237 919 q 1302 750 1291 821 m 196 482 q 188 502 196 494 q 168 510 180 510 q 148 502 156 510 q 140 482 140 494 l 140 460 q 148 440 140 448 q 168 432 156 432 q 188 440 180 432 q 196 460 196 448 l 196 482 m 265 813 q 276 832 274 820 q 272 853 278 843 q 248 865 263 865 q 232 860 239 865 q 190 811 208 842 q 162 741 173 780 q 147 660 151 703 q 144 578 142 618 q 152 559 144 567 q 172 551 160 551 q 192 560 184 551 q 200 580 201 568 q 203 657 199 619 q 216 725 208 694 q 238 780 225 756 q 265 813 250 803 m 922 582 q 914 602 922 594 q 894 610 906 610 q 874 602 882 610 q 865 582 865 594 l 865 565 q 874 545 865 553 q 894 537 882 537 q 914 545 906 537 q 922 565 922 553 l 922 582 m 981 827 q 993 845 991 834 q 988 867 994 857 q 964 878 979 878 q 948 874 955 878 q 915 838 930 861 q 889 785 900 815 q 873 723 878 756 q 868 655 867 689 q 877 635 869 643 q 897 627 885 627 l 897 627 q 917 636 909 628 q 925 656 925 644 q 929 713 924 685 q 941 763 933 740 q 960 803 949 786 q 981 827 970 819 z "},"V":{"ha":1286,"x_min":10,"x_max":1276,"o":"m 1083 986 q 1164 942 1126 973 q 1229 865 1203 912 q 1266 755 1256 818 q 1263 613 1276 692 q 1236 507 1256 567 q 1189 379 1216 447 q 1127 241 1161 312 q 1057 102 1093 169 q 985 -26 1021 35 q 915 -133 949 -87 q 862 -200 892 -167 q 798 -260 833 -233 q 725 -303 764 -286 q 641 -319 685 -319 q 505 -272 573 -319 q 371 -133 436 -225 q 302 -26 338 -87 q 229 102 265 35 q 159 241 193 169 q 98 379 126 312 q 50 507 70 447 q 23 613 31 567 q 20 755 10 692 q 57 865 31 818 q 122 942 83 912 q 203 986 160 973 q 271 996 237 996 q 345 984 308 996 q 418 948 383 973 q 486 884 454 923 q 542 790 518 844 q 558 746 551 770 q 570 694 565 722 q 581 637 576 667 q 591 578 586 608 q 601 521 595 553 q 613 460 606 489 q 627 409 619 431 q 642 383 634 388 q 647 384 644 384 q 660 410 653 388 q 673 460 667 431 q 685 520 679 489 q 694 578 690 552 q 715 694 704 638 q 744 790 726 751 q 800 884 768 844 q 868 948 832 923 q 941 984 903 973 q 1015 996 979 996 q 1083 986 1049 996 m 180 481 q 191 469 183 474 q 206 465 198 465 q 218 468 213 465 q 232 484 228 474 q 231 506 235 495 q 205 567 217 538 q 184 626 192 597 q 177 689 176 656 q 194 757 178 721 q 196 779 198 768 q 183 796 194 790 q 169 799 178 799 q 155 796 162 799 q 145 785 149 792 q 180 481 81 679 m 263 388 q 270 402 268 393 q 269 419 272 410 l 263 431 q 252 444 260 440 q 237 449 245 449 q 226 447 232 449 q 211 431 215 442 q 211 409 206 420 l 217 397 q 227 384 220 389 q 242 380 235 380 q 253 382 249 380 q 263 388 258 384 m 862 659 q 862 681 867 670 q 846 696 857 692 q 836 698 841 698 q 820 693 827 698 q 809 679 813 688 l 804 667 q 805 645 800 656 q 821 630 810 634 q 826 628 824 628 q 831 628 828 628 q 858 647 850 628 l 862 659 m 1010 828 q 1031 833 1022 827 q 1042 851 1040 840 q 1038 873 1044 863 q 1019 884 1031 882 q 998 886 1008 886 q 947 875 971 886 q 903 845 923 864 q 867 802 883 826 q 841 751 851 778 q 841 730 836 741 q 856 715 846 719 q 867 713 862 713 q 893 731 886 713 q 905 753 896 737 q 929 785 915 769 q 963 815 944 802 q 1003 828 982 828 l 1010 828 z "},"W":{"ha":1593,"x_min":28,"x_max":1565,"o":"m 1558 656 q 1561 509 1565 587 q 1548 352 1558 432 q 1519 194 1537 273 q 1478 44 1501 116 q 1426 -91 1455 -28 q 1366 -202 1398 -154 q 1298 -280 1333 -249 q 1226 -316 1263 -310 q 1175 -320 1200 -320 q 1094 -307 1131 -320 q 1026 -270 1057 -293 q 971 -218 996 -248 q 926 -156 946 -188 q 889 -90 906 -124 q 858 -27 872 -57 q 842 5 851 -12 q 826 37 834 22 q 810 63 817 52 q 797 75 803 74 q 784 63 792 74 q 767 37 776 52 q 751 5 759 22 q 735 -27 742 -12 q 705 -90 722 -57 q 667 -156 688 -124 q 622 -218 647 -189 q 566 -270 597 -248 q 499 -307 535 -293 q 417 -320 462 -320 q 367 -316 394 -320 q 295 -280 331 -310 q 227 -202 260 -249 q 167 -91 195 -154 q 115 44 138 -28 q 74 194 92 116 q 45 352 56 273 q 32 509 35 432 q 35 656 28 587 q 116 920 49 829 q 292 1011 182 1011 q 495 933 418 1011 q 558 838 535 892 q 592 725 581 784 q 607 609 604 667 q 610 501 610 551 q 640 573 623 537 q 680 638 657 609 q 731 686 702 667 q 797 705 760 705 q 862 686 833 705 q 914 638 891 667 q 953 573 936 609 q 983 501 970 536 q 986 608 983 550 q 1001 725 989 667 q 1035 838 1013 784 q 1098 933 1058 892 q 1301 1011 1175 1011 q 1477 920 1411 1011 q 1558 656 1544 829 m 201 516 q 193 536 201 528 q 173 544 185 544 q 153 536 161 544 q 145 516 145 528 l 145 494 q 153 474 145 483 q 173 466 161 466 q 193 474 185 466 q 201 494 201 483 l 201 516 m 263 819 q 276 837 273 826 q 273 858 278 849 q 263 869 269 865 q 249 872 256 872 q 235 869 240 872 q 194 826 212 856 q 165 759 176 797 q 148 680 153 722 q 145 601 143 638 q 155 581 146 588 q 175 574 163 574 q 194 584 187 576 q 201 604 202 592 q 204 673 199 638 q 218 739 209 708 q 239 791 227 769 q 263 819 251 813 m 1160 538 q 1152 558 1160 549 q 1132 566 1144 566 q 1112 558 1120 566 q 1103 538 1103 549 l 1103 516 q 1112 496 1103 504 q 1132 488 1120 488 q 1152 496 1144 488 q 1160 516 1160 504 l 1160 538 m 1231 831 q 1244 848 1241 836 q 1241 869 1247 859 q 1216 883 1233 883 q 1202 880 1208 883 q 1161 840 1181 867 q 1129 776 1142 812 q 1108 701 1115 741 q 1103 623 1101 660 q 1113 603 1105 611 q 1133 596 1122 596 q 1153 606 1145 597 q 1160 626 1161 615 q 1165 694 1158 660 q 1182 756 1171 728 q 1206 804 1192 784 q 1231 831 1219 824 z "},"X":{"ha":1230,"x_min":14,"x_max":1216,"o":"m 1076 195 q 1113 157 1096 175 q 1141 121 1130 139 q 1195 -28 1189 47 q 1165 -172 1201 -103 q 1120 -232 1147 -205 q 1063 -279 1094 -260 q 995 -309 1031 -299 q 921 -320 959 -320 q 798 -286 853 -320 q 706 -187 743 -251 q 684 -139 693 -165 q 665 -86 674 -112 q 655 -54 660 -71 q 642 -23 649 -37 q 628 1 635 -9 q 615 11 622 10 q 601 1 608 10 q 588 -23 594 -9 q 575 -54 581 -37 q 565 -86 569 -71 q 546 -139 556 -112 q 524 -187 537 -165 q 432 -285 487 -250 q 303 -320 377 -320 q 232 -309 267 -319 q 165 -278 197 -298 q 108 -232 134 -259 q 65 -172 83 -205 q 34 -28 28 -103 q 88 121 40 47 q 117 157 100 139 q 153 195 134 175 q 186 229 169 212 q 215 263 202 246 q 238 298 228 281 q 248 330 247 315 q 240 366 250 347 q 215 407 231 386 q 180 447 199 427 q 145 483 161 467 q 119 509 131 497 q 99 532 108 522 q 26 690 38 608 q 52 849 14 772 q 96 913 70 884 q 154 962 122 942 q 222 993 186 982 q 294 1004 258 1004 q 366 992 333 1004 q 426 957 399 979 q 474 905 453 935 q 510 841 495 876 q 521 809 515 827 q 533 770 526 792 q 547 722 538 749 q 565 669 555 694 q 588 626 576 644 q 615 609 601 609 q 641 626 628 609 q 664 669 653 644 q 683 722 674 694 q 697 770 691 749 q 709 809 703 792 q 720 841 715 827 q 756 905 735 876 q 803 957 776 935 q 864 992 831 979 q 935 1004 897 1004 q 1008 993 972 1004 q 1076 962 1044 982 q 1134 913 1108 942 q 1178 849 1160 884 q 1204 690 1216 772 q 1131 532 1192 608 q 1110 509 1122 522 q 1085 483 1099 497 q 1050 447 1069 467 q 1015 407 1031 427 q 990 367 999 386 q 982 331 980 347 q 992 298 983 315 q 1014 263 1001 281 q 1044 229 1028 246 q 1076 195 1060 212 m 201 597 q 221 606 212 597 q 229 625 229 614 q 220 645 228 637 q 206 663 216 649 q 188 695 195 676 q 181 735 181 713 q 198 780 181 758 q 206 800 206 790 q 198 819 206 811 q 178 828 190 828 q 158 819 166 828 q 133 780 142 803 q 124 731 124 757 q 139 664 125 696 q 181 605 153 631 q 201 597 189 597 m 278 534 q 288 553 288 542 q 281 574 288 565 l 276 580 q 254 589 267 589 q 236 582 243 589 q 226 563 227 574 q 233 542 226 551 l 238 537 q 260 527 247 527 q 278 534 271 527 m 835 729 q 833 751 838 740 q 817 765 828 761 q 808 767 812 767 q 792 762 799 767 q 781 748 785 757 l 776 734 q 778 713 773 723 q 794 698 783 702 q 803 697 799 697 q 819 701 812 697 q 830 715 826 706 l 835 729 m 953 841 q 971 835 963 835 q 993 847 985 835 q 999 867 1001 856 q 988 886 997 878 q 962 899 977 894 q 931 903 947 903 q 864 882 893 903 q 820 826 835 862 q 819 805 815 816 q 835 790 824 794 q 846 788 840 788 q 861 792 854 788 q 872 805 869 797 q 879 816 874 809 q 891 831 884 824 q 908 844 899 838 q 929 849 918 849 q 953 841 941 849 z "},"Y":{"ha":1246,"x_min":14,"x_max":1239,"o":"m 1160 928 q 1225 775 1212 867 q 1213 578 1239 683 q 1164 447 1195 510 q 1089 332 1132 385 q 991 238 1045 279 q 874 168 937 196 q 889 67 885 120 q 887 -39 892 14 q 866 -140 882 -91 q 819 -228 849 -189 q 617 -320 747 -320 q 513 -298 560 -320 q 432 -233 466 -276 q 385 -145 402 -194 q 362 -43 368 -97 q 359 64 356 10 q 372 168 362 119 q 255 238 310 196 q 157 332 201 279 q 82 447 113 385 q 33 578 50 509 q 17 681 19 631 q 20 775 14 731 q 43 859 27 820 q 85 928 60 899 q 179 1004 126 978 q 287 1030 231 1030 q 401 1001 346 1030 q 463 954 434 983 q 511 887 492 925 q 534 802 529 849 q 525 702 540 755 q 520 619 513 660 q 552 547 528 578 q 584 519 567 529 q 619 509 601 509 q 664 524 643 509 q 698 556 685 538 q 726 625 720 587 q 721 702 732 663 q 711 802 706 755 q 734 887 716 849 q 782 954 753 925 q 844 1001 811 983 q 958 1030 900 1030 q 1067 1004 1015 1030 q 1160 928 1119 978 m 184 551 q 201 565 196 555 q 203 586 206 575 l 199 599 q 186 615 196 610 q 164 617 176 621 q 147 604 153 614 q 145 582 142 594 l 149 570 q 159 555 152 560 q 176 550 167 550 q 184 551 181 550 m 216 819 q 231 834 227 824 q 231 856 235 845 q 220 869 227 865 q 205 873 213 873 q 194 871 199 873 q 153 838 169 860 q 128 785 137 815 q 119 724 120 756 q 125 663 119 692 q 135 647 127 653 q 152 641 142 641 q 158 642 156 641 q 176 654 170 644 q 180 675 183 663 q 175 721 175 698 q 181 764 176 744 q 195 799 186 784 q 216 819 204 814 m 871 684 q 863 704 871 696 q 842 713 854 713 q 822 704 831 713 q 814 684 814 696 l 814 674 q 822 655 814 663 q 842 647 831 647 q 863 655 854 647 q 871 674 871 663 l 871 684 m 893 849 q 912 859 905 851 q 918 880 919 868 q 909 899 917 892 q 890 906 901 906 q 858 895 873 906 q 833 872 842 885 q 810 818 816 850 q 810 756 803 786 q 820 740 812 747 q 838 733 828 733 q 840 734 839 733 q 843 734 842 734 q 861 746 855 737 q 865 767 867 756 q 865 806 861 785 q 878 839 868 826 q 893 849 885 848 z "},"Z":{"ha":1142,"x_min":31,"x_max":1113,"o":"m 842 225 q 864 227 853 226 q 885 228 874 228 q 981 207 937 228 q 1056 145 1024 186 q 1092 83 1078 117 q 1109 12 1105 49 q 1108 -62 1113 -24 q 1088 -133 1103 -99 q 995 -247 1057 -205 q 847 -297 933 -289 l 811 -301 q 668 -314 747 -307 q 507 -320 590 -320 q 405 -317 459 -320 q 298 -302 351 -313 q 196 -272 244 -292 q 111 -221 148 -253 q 52 -144 74 -190 q 31 -37 31 -99 q 48 70 31 22 q 96 158 66 118 q 165 229 126 197 q 248 286 204 260 q 337 334 292 313 q 424 373 382 355 q 486 401 456 387 q 540 430 517 415 q 577 457 564 444 q 586 483 590 471 q 577 503 582 499 q 571 508 572 507 q 556 511 565 511 q 509 502 538 511 q 447 481 481 492 q 408 466 429 474 q 365 451 388 459 q 284 438 324 438 q 203 454 240 438 q 135 502 165 470 q 93 566 110 530 q 70 643 76 603 q 69 726 65 684 q 89 808 74 769 q 197 943 123 893 q 374 998 272 992 l 384 999 q 495 1005 438 1002 q 609 1008 551 1008 q 728 1003 668 1008 q 843 985 788 998 q 948 948 899 972 q 1033 888 997 925 q 1090 799 1069 851 q 1111 674 1111 746 q 1093 568 1111 615 q 1045 483 1076 521 q 976 415 1015 444 q 892 361 936 385 q 802 318 848 337 q 715 282 756 299 q 643 253 678 267 q 582 223 608 238 q 542 192 556 208 q 531 158 528 176 q 532 153 531 154 q 533 152 533 152 q 548 149 538 149 q 573 152 558 149 q 605 160 588 155 q 640 170 622 165 q 674 181 658 176 q 756 206 713 193 q 842 225 799 218 m 246 632 q 246 648 247 644 q 244 655 245 652 q 234 669 241 665 q 217 674 227 674 q 208 673 214 674 q 193 661 199 669 q 190 642 188 652 l 190 638 q 189 635 189 637 q 196 615 188 624 q 216 606 204 606 q 236 613 228 606 q 246 632 244 620 m 402 829 q 423 836 414 828 q 433 855 432 843 q 427 875 435 867 q 408 885 419 884 q 398 886 403 886 q 385 887 392 887 q 315 878 349 887 q 252 850 280 869 q 208 802 225 831 q 189 733 191 774 q 196 713 188 722 q 216 704 204 705 q 236 712 228 704 q 246 731 243 719 q 259 770 249 751 q 288 803 269 789 q 334 824 306 817 q 402 829 363 831 z "},"a":{"ha":1207,"x_min":10,"x_max":1197,"o":"m 368 474 q 368 496 372 485 q 352 511 363 507 q 342 513 347 513 q 326 508 333 513 q 315 494 319 503 l 306 469 q 306 448 301 458 q 322 433 311 437 q 332 431 328 431 q 358 449 351 431 l 368 474 m 656 471 q 651 509 656 490 q 640 545 647 529 q 623 573 633 562 q 603 583 614 583 q 585 572 594 583 q 569 543 576 560 q 557 505 562 526 q 553 467 553 485 q 555 442 553 454 q 564 421 558 431 q 579 406 569 412 q 603 400 589 400 q 629 406 619 400 q 645 423 639 413 q 653 445 651 433 q 656 471 656 458 m 537 779 q 544 800 544 788 q 534 819 543 812 q 515 826 525 826 q 494 817 503 826 q 453 763 474 793 q 416 703 433 733 q 384 643 398 672 q 363 592 371 615 q 365 570 360 581 q 381 556 369 560 q 385 555 383 556 q 390 555 388 555 q 406 560 399 555 q 417 574 413 565 q 436 620 424 594 q 465 675 449 647 q 500 731 481 703 q 537 779 518 758 m 1185 63 q 1186 -82 1197 -17 q 1149 -193 1176 -146 q 1086 -270 1123 -240 q 1008 -312 1049 -300 q 951 -319 979 -319 q 883 -309 918 -319 q 814 -274 848 -298 q 750 -210 781 -249 q 695 -112 719 -170 q 671 -43 681 -79 q 653 26 661 -8 q 642 66 648 44 q 630 107 636 88 q 616 139 623 126 q 602 152 609 151 q 591 138 597 151 q 578 105 584 124 q 565 64 572 85 q 555 26 559 42 q 536 -43 546 -8 q 512 -112 526 -79 q 457 -210 488 -170 q 392 -274 426 -249 q 324 -309 358 -298 q 256 -319 289 -319 q 199 -312 226 -319 q 122 -270 159 -300 q 58 -193 84 -240 q 20 -82 31 -146 q 22 63 10 -17 q 48 169 30 109 q 92 297 66 229 q 149 435 118 364 q 214 574 181 506 q 282 702 248 641 q 347 809 316 763 q 477 957 411 906 q 604 1008 543 1008 l 608 1008 q 731 958 668 1008 q 860 809 794 908 q 925 702 891 763 q 993 574 959 641 q 1058 435 1026 506 q 1115 297 1089 365 q 1159 169 1141 230 q 1185 63 1177 109 z "},"b":{"ha":1183,"x_min":23,"x_max":1164,"o":"m 906 412 q 1009 363 960 394 q 1092 289 1057 332 q 1145 190 1127 245 q 1158 69 1164 135 q 1127 -47 1153 8 q 1055 -146 1101 -101 q 946 -226 1010 -191 q 802 -283 882 -260 q 675 -309 740 -301 q 547 -317 610 -317 q 417 -308 480 -317 q 301 -282 354 -299 q 207 -239 248 -264 q 142 -181 166 -214 q 85 -77 108 -133 q 48 41 62 -21 q 28 166 34 102 q 23 291 23 229 q 27 411 23 353 q 38 520 32 469 q 51 610 44 570 q 64 676 58 650 q 104 787 77 738 q 169 874 131 836 q 252 937 206 911 q 346 980 297 963 q 445 1004 394 997 q 542 1012 495 1012 q 641 1004 590 1012 q 743 981 692 997 q 840 941 793 965 q 925 883 887 917 q 989 807 963 850 q 1025 712 1015 765 q 906 412 1062 510 m 514 685 q 498 668 504 681 q 489 639 492 656 q 487 604 486 622 q 492 569 488 585 q 504 541 495 555 q 528 527 513 527 q 546 532 533 527 q 575 548 560 538 q 601 573 590 558 q 614 610 613 589 q 604 644 615 631 q 581 665 593 658 q 550 681 567 675 q 522 686 533 686 q 514 685 518 686 m 246 544 q 242 565 249 556 q 224 577 236 574 q 218 578 222 578 q 200 571 208 578 q 191 555 192 565 l 187 538 q 191 516 185 526 q 209 504 197 507 q 212 504 210 504 q 215 503 213 503 q 232 510 224 503 q 242 526 240 517 l 246 544 m 391 794 q 410 805 403 797 q 416 825 417 813 q 406 844 415 837 q 385 850 397 851 q 324 830 355 847 q 267 788 293 814 q 223 727 241 761 q 201 653 205 692 q 207 632 200 641 q 226 622 215 624 q 247 629 238 622 q 258 648 256 635 q 271 691 260 668 q 300 735 282 715 q 341 772 317 756 q 391 794 365 788 m 613 19 q 634 43 624 29 q 642 74 644 57 q 630 108 641 92 q 603 134 619 124 q 568 151 588 145 q 530 158 549 158 q 493 137 508 158 q 474 81 478 117 q 474 48 472 65 q 481 18 476 32 q 494 -5 485 5 q 514 -17 502 -15 q 535 -17 522 -19 q 561 -10 548 -15 q 589 2 575 -6 q 613 19 603 10 z "},"c":{"ha":1015,"x_min":24,"x_max":996,"o":"m 369 703 q 381 721 379 710 q 376 742 383 733 q 365 751 372 748 q 353 754 359 754 q 331 745 342 754 q 316 726 319 736 q 318 705 313 715 q 334 690 323 694 q 343 689 340 689 q 365 699 356 689 q 367 701 366 701 q 368 702 367 701 q 369 703 369 702 m 430 752 q 448 759 441 752 q 488 786 465 773 q 540 808 512 799 q 597 824 567 818 q 656 829 627 829 q 675 828 665 829 q 694 826 684 827 q 715 830 706 824 q 726 848 724 836 q 722 869 728 860 q 704 881 716 879 q 656 885 681 885 q 590 880 624 885 q 524 863 556 874 q 463 836 492 851 q 411 802 433 821 q 401 783 402 794 q 408 762 401 772 q 430 752 417 752 m 960 98 q 989 8 983 54 q 986 -82 996 -37 q 950 -168 976 -126 q 885 -243 925 -209 q 777 -301 840 -282 q 641 -320 714 -320 q 510 -306 577 -320 q 378 -260 443 -291 q 228 -166 294 -222 q 117 -40 163 -110 q 48 112 72 31 q 24 281 24 193 q 47 489 24 394 q 113 661 71 584 q 211 799 154 739 q 334 902 267 859 q 473 970 400 944 q 620 1004 546 996 q 646 1006 633 1006 q 671 1007 658 1007 q 829 971 760 1007 q 940 866 899 935 q 974 788 963 829 q 985 703 985 746 q 974 621 985 661 q 940 548 963 581 q 912 514 929 533 q 869 480 894 496 q 811 453 844 464 q 733 443 777 443 q 705 444 719 443 q 674 448 690 445 q 641 452 656 451 q 611 453 625 453 q 556 447 581 453 q 513 426 531 440 q 484 389 494 412 q 473 334 474 367 q 482 284 472 308 q 513 244 493 260 q 591 219 544 219 q 646 228 618 219 q 726 239 686 239 q 803 228 767 239 q 869 197 839 217 q 922 152 899 178 q 960 98 944 126 z "},"d":{"ha":1143,"x_min":31,"x_max":1198,"o":"m 576 205 q 615 263 601 224 q 631 349 630 302 q 620 422 631 390 q 590 474 610 453 q 545 494 569 494 q 523 472 533 494 q 507 408 513 449 q 502 341 503 377 q 505 274 501 306 q 516 220 508 243 q 538 194 524 198 q 576 205 556 190 m 220 461 q 240 469 232 461 q 248 489 248 477 l 248 507 q 242 528 249 519 q 223 538 235 537 l 219 538 q 201 531 208 538 q 192 513 193 524 l 192 490 q 200 469 192 478 q 219 461 208 461 l 220 461 m 367 787 q 386 798 379 789 q 391 819 392 808 q 380 838 389 831 q 358 842 370 844 q 298 816 326 837 q 248 762 269 794 q 213 687 226 729 q 198 599 200 645 q 205 578 197 587 q 225 569 213 569 l 226 569 q 246 576 238 569 q 255 596 254 584 q 258 616 255 601 q 266 651 260 631 q 280 693 271 671 q 301 735 288 715 q 330 768 313 754 q 367 787 347 783 m 1039 686 q 1047 57 1198 371 q 943 -95 1006 -27 q 803 -212 881 -164 q 637 -286 726 -260 q 455 -312 548 -312 q 271 -278 352 -312 q 146 -181 190 -244 q 90 -77 113 -133 q 55 41 68 -20 q 36 166 42 102 q 31 292 31 230 q 35 412 31 353 q 45 520 40 470 q 58 610 51 570 q 70 676 65 650 q 125 817 86 756 q 218 918 163 877 q 343 978 274 958 q 491 999 413 999 q 659 976 576 999 q 815 912 742 953 q 946 813 888 871 q 1039 686 1004 756 z "},"e":{"ha":1031,"x_min":23,"x_max":1012,"o":"m 972 102 q 1002 23 993 67 q 1006 -66 1012 -20 q 975 -157 999 -112 q 904 -243 951 -203 q 799 -299 860 -281 q 665 -317 737 -317 q 530 -302 599 -317 q 391 -255 460 -286 q 236 -157 305 -215 q 120 -28 168 -99 q 48 124 73 42 q 23 296 23 206 q 49 508 23 413 q 120 678 75 603 q 225 811 165 754 q 353 908 285 868 q 495 972 422 948 q 639 1004 568 995 q 666 1007 653 1006 q 691 1008 678 1008 q 847 970 778 1008 q 956 863 915 933 q 989 780 978 824 q 998 692 999 736 q 984 608 997 649 q 947 534 971 567 q 922 507 937 522 q 885 479 906 492 q 835 458 863 466 q 772 449 808 449 q 734 452 754 449 q 692 460 715 455 q 653 468 672 466 q 619 470 635 470 q 557 461 581 470 q 519 438 532 451 q 510 425 512 430 q 508 418 508 419 q 518 414 510 416 q 542 412 526 412 q 573 414 555 412 q 615 422 590 416 q 630 424 623 424 q 644 425 638 425 q 706 399 685 425 q 726 333 726 372 q 719 298 725 315 q 702 268 713 281 q 675 247 691 255 q 640 240 660 240 q 617 242 628 240 q 583 249 599 247 q 554 251 567 251 q 513 243 519 251 q 517 231 513 240 q 532 212 520 222 q 591 193 554 193 q 660 207 622 193 q 711 221 687 217 q 759 226 735 226 q 827 216 795 226 q 886 190 859 206 q 935 150 914 173 q 972 102 957 128 m 364 703 q 376 721 374 710 q 370 742 378 733 q 347 754 362 754 q 331 749 340 754 q 317 737 322 742 q 311 726 313 732 q 313 705 308 715 q 329 690 317 694 q 338 689 335 689 q 360 699 351 689 l 363 702 q 364 703 363 702 m 424 752 q 443 759 435 752 q 483 786 460 773 q 535 808 507 799 q 592 824 563 818 q 650 829 622 829 q 688 826 669 829 q 709 830 700 824 q 722 848 719 836 q 717 869 724 860 q 699 881 710 879 q 650 885 676 885 q 585 880 619 885 q 519 863 551 874 q 458 836 487 851 q 406 802 428 821 q 396 783 397 794 q 403 762 395 772 q 424 752 411 752 z "},"f":{"ha":1008,"x_min":28,"x_max":993,"o":"m 196 461 q 216 469 208 461 q 224 489 224 477 l 224 499 q 224 503 224 501 q 224 507 224 506 q 218 528 225 519 q 199 538 210 537 l 195 538 q 177 531 185 538 q 167 513 169 524 l 167 490 q 175 469 167 478 q 195 461 183 461 l 196 461 m 369 778 q 388 790 381 781 q 392 810 394 799 q 381 829 391 822 q 360 833 372 835 q 295 808 328 828 q 237 756 263 788 q 193 685 210 725 q 174 599 176 644 q 181 578 174 587 q 201 569 189 569 l 202 569 q 222 576 214 569 q 231 596 230 584 q 233 614 231 600 q 242 645 236 627 q 259 684 249 664 q 284 724 269 705 q 320 757 299 743 q 369 778 342 772 m 949 864 q 982 777 972 823 q 992 686 993 731 q 977 599 990 641 q 938 525 963 558 q 778 449 877 449 q 700 460 742 449 q 625 472 660 472 q 567 463 591 472 q 530 440 543 453 q 519 426 522 432 q 517 418 517 419 q 527 414 519 416 q 551 412 535 412 q 581 414 563 412 q 623 422 599 416 q 639 424 631 424 q 653 425 646 425 q 683 420 671 425 q 703 409 696 415 q 727 377 719 397 q 734 333 735 358 q 728 298 734 315 q 711 268 722 281 q 684 247 700 255 q 649 240 669 240 q 625 242 636 240 q 591 249 607 247 q 563 251 576 251 q 522 243 529 251 q 524 228 521 238 q 531 202 526 217 q 541 161 535 185 q 552 105 547 138 q 561 29 558 72 q 563 -71 564 -15 q 541 -175 562 -131 q 488 -251 521 -220 q 415 -297 456 -281 q 331 -316 374 -313 q 322 -316 326 -316 q 314 -317 318 -317 q 229 -303 272 -317 q 151 -262 187 -290 q 89 -192 115 -235 q 55 -90 63 -149 q 46 -18 51 -60 q 37 76 41 25 q 31 183 33 126 q 28 297 28 239 q 31 412 28 355 q 41 521 34 469 q 83 700 55 626 q 151 825 112 774 q 240 906 191 875 q 345 954 290 936 q 463 981 401 972 q 587 997 524 990 q 617 1000 602 999 q 648 1004 632 1002 q 672 1006 660 1006 q 696 1007 684 1007 q 844 970 778 1007 q 949 864 909 933 z "},"g":{"ha":1089,"x_min":23,"x_max":1067,"o":"m 818 413 q 909 391 864 408 q 990 344 954 374 q 1046 275 1025 315 q 1065 183 1067 235 q 1051 81 1064 139 q 1016 -38 1039 22 q 959 -152 992 -98 q 885 -243 926 -207 q 777 -301 840 -282 q 641 -320 714 -320 q 510 -306 577 -320 q 377 -260 443 -291 q 228 -166 294 -222 q 117 -40 163 -110 q 47 112 71 31 q 23 281 23 193 q 47 488 23 393 q 112 659 71 582 q 210 796 153 736 q 334 899 267 856 q 473 969 400 942 q 619 1004 546 995 q 644 1006 632 1006 q 668 1007 656 1007 q 815 973 750 1007 q 919 874 879 940 q 955 793 943 836 q 967 706 967 750 q 955 620 967 663 q 919 544 943 578 q 837 469 886 494 q 726 444 788 444 q 673 448 700 444 q 641 452 656 451 q 611 453 625 453 q 556 447 581 453 q 513 426 531 440 q 484 389 494 412 q 473 334 474 367 q 478 291 472 315 q 494 245 484 267 q 518 206 505 223 q 545 183 531 189 q 560 188 549 182 q 583 213 572 194 q 586 222 586 220 q 582 231 586 224 q 571 253 576 239 q 569 289 565 267 q 593 342 576 318 q 638 382 611 365 q 699 407 665 398 q 774 416 734 416 q 795 415 785 416 q 818 413 806 415 m 370 703 q 382 721 380 710 q 376 742 383 733 q 353 754 368 754 q 332 745 342 754 q 317 726 321 736 q 319 704 314 715 q 335 690 324 694 q 344 689 341 689 q 366 699 358 689 l 369 702 q 370 703 369 702 m 431 752 q 449 759 442 752 q 489 786 465 773 q 541 808 513 799 q 599 824 569 818 q 656 829 628 829 q 694 826 675 829 q 716 830 706 824 q 728 848 725 836 q 723 869 730 860 q 705 881 717 879 q 656 885 682 885 q 591 880 625 885 q 525 863 558 874 q 464 836 493 851 q 413 802 435 821 q 402 783 403 794 q 409 762 401 772 q 431 752 417 752 z "},"h":{"ha":1326,"x_min":38,"x_max":1289,"o":"m 210 510 q 202 530 210 522 q 182 538 194 538 q 162 530 170 538 q 153 510 153 522 l 153 488 q 162 468 153 476 q 182 460 170 460 q 202 468 194 460 q 210 488 210 476 l 210 510 m 872 510 q 864 530 872 522 q 844 538 856 538 q 824 530 832 538 q 815 510 815 522 l 815 488 q 824 468 815 476 q 844 460 832 460 q 864 468 856 460 q 872 488 872 476 l 872 510 m 282 817 q 296 833 292 822 q 294 855 299 844 q 269 870 286 870 q 256 867 263 870 q 214 830 233 855 q 182 771 195 805 q 163 695 169 737 q 158 606 156 653 q 166 587 158 594 q 185 579 174 579 l 186 579 q 206 588 198 579 q 214 608 215 596 q 216 666 213 639 q 225 717 219 694 l 244 770 q 282 817 260 806 m 944 817 q 958 833 954 822 q 956 855 961 844 q 931 870 948 870 q 917 867 924 870 q 876 830 894 855 q 844 771 857 805 q 825 695 831 737 q 819 606 818 653 q 827 587 819 594 q 847 579 835 579 l 848 579 q 868 588 860 579 q 876 608 876 596 q 878 666 874 639 q 887 717 881 694 l 906 770 q 944 817 922 806 m 1264 750 q 1284 541 1279 652 q 1286 318 1289 429 q 1274 105 1283 208 q 1251 -78 1265 3 q 1213 -187 1240 -142 q 1150 -261 1185 -233 q 1075 -302 1115 -289 q 999 -315 1035 -315 l 996 -315 q 914 -301 956 -315 q 835 -258 872 -287 q 772 -185 799 -230 q 733 -81 744 -141 q 713 63 721 -18 q 703 239 706 143 l 619 239 q 606 70 615 151 q 586 -78 598 -10 q 555 -175 577 -131 q 499 -249 532 -218 q 425 -297 467 -280 q 335 -315 383 -314 l 332 -315 q 249 -301 291 -315 q 172 -258 208 -287 q 108 -185 135 -230 q 69 -81 81 -141 q 51 44 58 -24 q 41 187 44 113 q 38 338 38 261 q 43 488 39 415 q 53 625 47 560 q 69 740 60 690 q 110 861 81 810 q 177 945 139 913 q 259 993 215 978 q 344 1009 302 1009 q 423 994 382 1008 q 499 950 463 981 q 562 870 535 919 q 600 750 589 821 q 616 605 610 683 q 623 440 622 526 l 705 440 q 715 605 708 528 q 733 740 722 681 q 774 861 745 810 q 841 945 803 913 q 923 993 878 978 q 1009 1009 967 1009 q 1087 994 1047 1008 q 1163 950 1127 981 q 1226 870 1199 919 q 1264 750 1253 821 z "},"i":{"ha":662,"x_min":38,"x_max":625,"o":"m 600 750 q 620 541 615 652 q 622 318 625 429 q 610 105 619 208 q 587 -78 601 3 q 557 -170 578 -127 q 503 -246 536 -214 q 428 -296 471 -278 q 332 -315 385 -315 q 250 -301 292 -315 q 172 -259 208 -287 q 108 -186 135 -230 q 69 -81 81 -142 q 51 44 58 -25 q 41 187 44 113 q 39 338 38 261 q 43 487 40 415 q 53 625 47 560 q 69 741 60 690 q 101 843 78 794 q 159 928 124 891 q 241 987 194 965 q 345 1009 288 1009 q 423 994 383 1008 q 499 950 463 981 q 562 870 535 919 q 600 750 589 821 m 217 510 q 209 530 217 522 q 189 538 201 538 q 169 530 177 538 q 160 510 160 522 l 160 488 q 169 468 160 476 q 189 460 177 460 q 209 468 201 460 q 217 488 217 476 l 217 510 m 289 817 q 303 833 299 822 q 301 855 306 844 q 276 870 293 870 q 263 867 269 870 q 221 830 240 855 q 189 771 202 805 q 170 695 176 737 q 165 606 163 653 q 173 586 165 594 q 194 579 182 579 q 214 588 206 579 q 221 608 222 596 q 223 666 220 639 q 232 717 226 694 l 251 770 q 289 817 267 806 z "},"j":{"ha":845,"x_min":8,"x_max":810,"o":"m 794 783 q 801 700 798 750 q 807 589 804 649 q 810 463 809 529 q 809 331 810 397 q 805 205 808 266 q 795 94 801 144 q 750 -94 781 -18 q 665 -218 720 -170 q 528 -290 610 -267 q 327 -320 446 -314 l 307 -320 q 156 -285 221 -320 q 51 -181 90 -249 q 19 -105 30 -146 q 8 -24 9 -65 q 17 55 8 17 q 46 122 26 92 q 107 178 71 160 q 185 192 142 197 q 211 190 199 191 q 235 190 224 190 q 320 212 298 190 q 333 278 338 230 q 331 294 333 284 q 328 319 330 305 q 316 398 323 351 q 302 503 308 445 q 292 627 296 561 q 289 761 288 692 q 312 869 290 823 q 369 947 334 915 q 447 994 403 978 q 533 1012 490 1010 l 542 1012 q 627 999 585 1012 q 705 957 669 985 q 764 886 740 929 q 794 783 788 843 m 448 465 q 468 475 460 467 q 474 496 476 484 l 472 520 q 463 539 472 531 q 442 546 454 546 q 423 536 431 544 q 416 516 415 528 l 418 492 q 427 472 419 479 q 448 465 436 465 m 488 831 q 502 847 499 836 q 501 869 506 858 q 475 884 492 884 q 463 881 469 884 q 422 839 436 867 q 403 774 408 810 q 399 694 398 737 q 404 610 400 652 q 414 591 406 599 q 433 584 422 584 q 435 585 434 584 q 455 595 447 586 q 460 615 462 603 q 458 757 452 702 l 464 792 q 488 831 472 822 z "},"k":{"ha":1115,"x_min":39,"x_max":1094,"o":"m 1059 56 q 1089 -7 1084 28 q 1085 -77 1094 -41 q 1056 -149 1076 -113 q 1007 -214 1035 -184 q 963 -254 987 -235 q 914 -287 940 -273 q 860 -309 888 -301 q 806 -317 833 -317 q 760 -310 783 -317 q 717 -287 738 -303 q 662 -228 685 -264 q 614 -150 638 -193 q 593 -114 604 -132 q 569 -76 582 -95 q 542 -172 563 -128 q 488 -250 521 -217 q 409 -301 454 -283 q 310 -319 365 -319 q 226 -305 269 -319 q 147 -260 183 -290 q 85 -183 110 -230 q 52 -74 59 -137 q 45 22 48 -38 q 41 155 42 82 q 39 309 39 228 q 41 467 39 390 q 46 612 42 544 q 56 728 49 680 q 83 835 63 784 q 138 926 104 887 q 220 988 172 965 q 329 1010 268 1010 q 413 993 371 1010 q 491 942 456 976 q 552 859 527 909 q 585 741 578 809 q 617 789 602 765 q 645 833 631 812 q 695 911 672 877 q 747 967 719 945 q 849 1003 794 1003 q 921 987 885 1003 q 990 936 957 970 q 1042 862 1020 904 q 1073 776 1064 820 q 1074 690 1081 732 q 1040 617 1067 649 q 993 566 1019 592 q 937 516 967 541 q 875 466 907 491 q 812 415 844 440 q 783 392 797 403 q 755 370 769 381 q 752 365 752 367 q 768 331 752 351 q 809 285 784 310 q 863 235 833 261 q 918 187 892 210 q 995 120 958 153 q 1059 56 1032 87 m 204 510 q 196 530 204 522 q 176 538 188 538 q 156 530 164 538 q 147 510 147 522 l 147 488 q 156 468 147 476 q 176 460 164 460 q 196 468 188 460 q 204 488 204 476 l 204 510 m 270 824 q 284 841 281 830 q 283 863 288 852 q 257 877 274 877 q 244 874 250 877 q 201 833 219 861 q 171 767 183 804 q 155 689 160 731 q 151 606 151 647 q 160 586 151 594 q 181 579 169 579 q 200 588 192 579 q 208 608 208 596 q 211 681 206 647 q 223 742 215 715 l 229 763 q 249 802 238 786 q 270 824 259 818 z "},"l":{"ha":1003,"x_min":38,"x_max":998,"o":"m 935 161 q 975 94 960 131 q 994 18 990 58 q 992 -62 998 -22 q 967 -140 985 -103 q 915 -217 947 -183 q 841 -273 883 -250 q 747 -308 799 -296 q 637 -320 695 -320 l 572 -320 q 543 -321 558 -321 q 514 -321 528 -321 q 402 -317 456 -321 q 301 -301 349 -314 q 212 -262 253 -287 q 139 -194 171 -237 q 84 -86 106 -151 q 51 68 61 -22 q 42 180 45 118 q 39 310 40 242 q 39 447 38 378 q 43 578 40 516 q 50 694 46 641 q 59 781 54 747 q 93 883 67 840 q 153 953 118 926 q 230 994 188 981 q 312 1008 271 1008 q 410 989 365 1008 q 486 937 454 970 q 535 859 517 904 q 554 761 553 814 q 552 627 556 692 q 542 503 548 561 q 528 398 535 445 q 516 319 521 351 q 510 278 511 291 q 524 233 507 247 q 590 215 544 215 q 638 219 612 215 q 692 231 663 223 q 764 240 730 240 q 859 220 815 240 q 935 161 903 201 m 192 510 q 184 530 192 522 q 164 538 176 538 q 144 530 152 538 q 135 510 135 522 l 135 488 q 144 468 135 476 q 164 460 152 460 q 184 468 176 460 q 192 488 192 476 l 192 510 m 253 831 q 267 847 263 836 q 265 869 270 858 q 240 884 257 884 q 226 881 233 884 q 183 838 201 867 q 156 770 166 808 q 142 690 146 733 q 140 606 139 647 q 148 587 140 594 q 169 579 157 579 q 189 588 181 579 q 196 608 197 596 q 199 686 195 649 q 210 753 202 723 q 228 803 217 783 q 253 831 240 824 z "},"m":{"ha":1592,"x_min":28,"x_max":1566,"o":"m 1226 1007 q 1321 949 1275 999 q 1407 822 1367 899 q 1478 648 1447 745 q 1530 445 1509 550 q 1558 234 1550 340 q 1558 35 1566 128 q 1477 -228 1543 -137 q 1301 -320 1410 -320 q 1097 -241 1175 -320 q 1035 -147 1058 -201 q 1000 -34 1012 -92 q 985 83 988 24 q 983 190 983 142 q 952 119 969 155 q 913 53 935 83 q 862 6 890 24 q 797 -13 833 -13 q 731 6 760 -13 q 680 53 702 24 q 640 119 657 83 q 610 190 623 155 q 607 83 610 142 q 592 -34 604 24 q 558 -147 581 -92 q 495 -241 535 -201 q 292 -320 417 -320 q 193 -297 237 -320 q 116 -228 149 -274 q 63 -117 83 -183 q 35 35 42 -51 q 32 182 28 105 q 45 339 35 260 q 73 497 56 418 q 114 648 91 576 q 166 782 138 719 q 227 893 194 845 q 294 971 259 941 q 367 1007 330 1001 q 393 1010 381 1009 q 417 1012 406 1012 q 499 998 462 1012 q 566 962 535 985 q 621 910 597 940 q 666 847 646 880 q 703 781 687 815 q 735 718 720 748 q 750 686 742 703 q 767 655 758 669 q 783 629 775 640 q 796 617 790 618 q 809 629 801 618 q 826 655 817 640 q 842 686 834 669 q 858 718 851 703 q 889 781 872 748 q 926 847 906 815 q 971 910 946 880 q 1026 962 996 940 q 1094 998 1057 985 q 1175 1012 1131 1012 q 1199 1010 1187 1012 q 1226 1007 1212 1009 m 247 475 q 248 497 252 486 q 233 513 244 508 q 222 515 228 515 q 196 498 203 515 q 189 480 190 485 q 187 471 187 475 q 195 451 187 459 q 215 442 203 442 q 233 449 226 442 q 243 465 241 456 q 244 468 244 467 q 246 472 245 470 q 247 475 247 473 m 404 837 q 419 852 415 842 q 418 874 423 863 q 407 886 415 882 q 392 890 400 890 q 381 888 386 890 q 335 853 356 877 q 297 798 315 828 q 266 734 280 768 q 242 670 252 701 q 226 617 233 640 q 219 585 220 594 q 223 563 217 573 q 242 551 230 553 q 263 556 253 551 q 274 574 272 561 q 284 614 277 590 q 300 665 290 638 q 321 719 309 692 q 347 770 333 747 q 375 812 360 794 q 404 837 390 830 m 1019 617 q 1019 639 1024 628 q 1004 654 1015 649 q 993 656 999 656 q 977 652 985 656 q 967 640 970 647 q 960 622 961 626 q 958 613 958 617 q 967 592 958 601 q 987 584 975 584 q 1005 590 997 584 q 1015 606 1013 597 l 1019 617 m 1153 824 q 1170 838 1165 828 q 1172 860 1176 849 q 1158 877 1169 872 q 1137 878 1148 882 q 1088 850 1111 870 q 1047 805 1065 829 q 1016 755 1029 780 q 998 713 1003 730 q 999 691 994 702 q 1015 677 1004 681 q 1020 676 1018 676 q 1025 676 1022 676 q 1051 694 1044 676 q 1069 732 1058 712 q 1094 772 1080 753 q 1123 805 1108 791 q 1153 824 1139 819 z "},"n":{"ha":1465,"x_min":33,"x_max":1431,"o":"m 1351 890 q 1411 667 1391 789 q 1430 414 1431 545 q 1408 145 1429 282 q 1346 -120 1387 9 q 1309 -199 1333 -163 q 1253 -260 1285 -235 q 1182 -300 1222 -286 q 1096 -315 1142 -315 q 1014 -302 1054 -315 q 936 -267 973 -290 q 867 -211 899 -244 q 810 -137 835 -178 q 742 -21 776 -81 q 677 94 708 39 q 633 171 656 133 q 593 241 611 210 l 593 238 q 596 173 594 208 q 597 99 597 138 q 594 18 597 60 q 585 -62 592 -23 q 554 -160 577 -115 q 495 -240 531 -206 q 413 -294 460 -274 q 313 -314 367 -314 q 232 -301 270 -314 q 164 -263 194 -287 q 110 -204 133 -239 q 76 -126 88 -169 q 49 11 59 -65 q 36 173 39 88 q 39 347 33 258 q 57 521 44 435 q 92 684 70 606 q 146 825 115 762 q 218 931 177 888 q 310 991 259 974 q 363 1004 338 1000 q 410 1008 388 1008 q 495 993 457 1008 q 565 953 533 978 q 622 896 597 928 q 668 828 647 863 q 706 758 689 793 q 735 692 722 723 l 749 662 q 757 644 753 654 q 767 621 761 633 q 781 586 772 607 q 800 543 790 566 q 820 497 810 520 q 841 453 831 473 q 842 468 842 460 q 842 483 842 475 q 845 547 844 513 q 849 619 847 581 q 856 695 852 656 q 867 772 860 733 q 898 868 876 824 q 956 946 921 913 q 1036 998 990 979 q 1135 1016 1081 1016 q 1204 1007 1171 1016 q 1265 982 1237 999 q 1315 942 1293 965 q 1351 890 1338 919 m 258 550 q 255 572 261 562 q 237 584 249 581 q 231 585 235 585 q 206 570 213 585 q 199 541 199 556 q 208 520 199 529 q 228 512 216 512 q 248 520 240 512 q 256 540 256 528 q 257 546 257 544 q 258 550 258 548 m 363 817 q 373 835 372 824 q 367 856 374 847 q 344 867 358 867 q 327 861 335 867 q 297 828 314 851 q 265 777 281 806 q 237 716 249 748 q 222 656 225 684 q 227 635 220 644 q 247 624 235 626 q 250 624 247 624 q 268 631 260 624 q 278 649 276 638 q 291 700 281 673 q 315 750 302 726 q 341 792 328 774 q 363 817 354 810 m 1010 614 q 1002 634 1010 626 q 982 642 994 642 q 962 634 970 642 q 953 614 953 626 l 953 602 q 962 582 953 590 q 982 574 970 574 q 1002 582 994 574 q 1010 602 1010 590 l 1010 614 m 1078 830 q 1090 848 1088 836 q 1085 869 1092 859 q 1076 878 1082 875 q 1063 881 1069 881 q 1047 876 1053 881 q 989 807 1010 852 q 965 703 967 762 q 973 683 965 692 q 992 674 981 675 q 1013 682 1004 674 q 1022 701 1022 689 q 1039 779 1024 745 q 1078 830 1053 813 z "},"o":{"ha":1244,"x_min":22,"x_max":1222,"o":"m 730 343 q 723 399 730 372 q 702 448 716 426 q 669 482 689 469 q 623 495 649 495 q 573 480 593 495 q 539 443 552 465 q 520 393 526 420 q 515 342 515 366 q 522 283 515 310 q 543 236 530 256 q 576 206 557 217 q 618 195 595 195 q 670 209 649 195 q 704 243 691 222 q 724 291 717 265 q 730 343 730 317 m 238 514 q 240 535 243 524 q 226 552 237 547 q 213 556 222 556 q 198 552 205 556 q 188 542 192 549 q 184 533 185 538 q 180 519 182 527 q 181 498 176 508 q 197 483 186 488 q 206 482 203 482 q 223 487 215 482 q 233 501 230 492 q 234 503 233 501 q 234 505 234 504 q 235 509 235 506 q 238 514 236 513 m 476 790 q 494 802 488 793 q 500 822 501 810 q 489 841 498 834 q 467 846 479 848 q 384 815 424 839 q 313 759 344 790 q 258 692 281 727 q 224 628 235 657 q 225 606 220 617 q 241 592 230 595 q 251 590 247 590 q 278 608 270 590 q 287 627 280 614 q 307 657 294 640 q 336 694 319 674 q 374 732 353 714 q 422 766 396 751 q 476 790 447 781 m 1142 686 q 1200 523 1181 608 q 1221 353 1220 439 q 1205 183 1222 267 q 1150 21 1187 99 q 1044 -134 1106 -72 q 910 -233 981 -195 q 765 -288 839 -270 q 624 -311 690 -306 q 305 -227 439 -311 q 94 21 171 -143 q 40 183 58 99 q 23 353 22 267 q 44 523 24 439 q 102 686 64 608 q 191 816 138 758 q 312 914 244 874 q 458 977 380 955 q 622 999 537 999 q 786 975 707 997 q 933 911 865 952 q 1055 813 1001 870 q 1142 686 1108 756 z "},"p":{"ha":1192,"x_min":38,"x_max":1172,"o":"m 1169 602 q 1137 418 1172 503 q 1035 270 1103 333 q 977 225 1010 248 q 899 185 943 203 q 799 156 854 167 q 675 145 743 145 q 643 146 659 145 q 609 148 626 147 q 599 43 605 91 q 586 -49 592 -4 l 582 -77 q 547 -185 573 -140 q 485 -261 521 -231 q 406 -306 449 -291 q 322 -320 364 -320 q 238 -306 280 -320 q 160 -262 196 -292 q 98 -187 124 -233 q 63 -80 72 -142 q 50 44 56 -24 q 42 184 44 111 q 39 331 39 256 q 41 475 38 405 q 48 609 43 546 q 61 724 53 673 q 90 819 69 778 q 138 890 111 860 q 195 938 165 919 q 250 968 224 956 q 294 984 276 979 q 319 990 313 988 q 419 1007 366 1001 q 531 1013 472 1013 q 665 1004 594 1013 q 806 975 736 995 q 941 924 876 956 q 1055 847 1005 892 q 1135 740 1105 801 q 1169 602 1166 680 m 226 482 q 217 502 226 494 q 197 510 209 510 q 177 502 185 510 q 169 482 169 494 l 169 460 q 177 440 169 448 q 197 432 185 432 q 217 440 209 432 q 226 460 226 448 l 226 482 m 291 789 q 305 806 301 794 q 303 827 308 817 q 278 842 295 842 q 265 839 272 842 q 219 797 238 825 q 191 733 201 769 q 176 657 180 697 q 173 578 172 617 q 182 558 173 566 q 202 551 190 551 q 222 560 214 551 q 229 580 230 568 q 232 647 228 615 q 242 706 235 679 l 254 741 q 291 789 269 778 m 631 467 q 669 474 650 467 q 705 491 689 480 q 732 517 721 501 q 744 551 742 533 q 735 582 745 569 q 715 606 726 596 q 670 633 696 622 q 626 644 644 644 q 620 643 622 644 q 615 642 618 643 q 595 630 603 640 q 582 607 587 621 q 576 577 577 593 q 576 544 574 560 q 595 488 580 509 q 631 467 610 467 z "},"q":{"ha":1244,"x_min":22,"x_max":1222,"o":"m 618 195 q 669 209 648 195 q 704 244 690 222 q 724 291 717 265 q 730 343 730 317 q 723 399 730 372 q 702 448 716 426 q 669 482 689 469 q 622 495 649 495 q 573 480 593 495 q 539 443 552 465 q 520 393 526 420 q 515 342 515 367 q 522 283 515 310 q 543 236 530 256 q 576 206 557 217 q 618 195 595 195 m 238 515 q 240 535 243 524 q 226 552 236 547 q 213 556 222 556 q 199 552 204 556 q 190 544 193 549 q 184 532 186 539 q 180 519 182 526 q 181 498 176 508 q 197 483 185 488 q 206 482 203 482 q 223 487 215 482 q 233 501 230 492 q 234 503 233 501 q 234 505 234 504 q 238 515 235 510 m 476 790 q 494 802 488 793 q 499 822 501 810 q 489 841 498 834 q 467 846 479 848 q 384 815 424 839 q 313 759 344 790 q 258 692 281 727 q 224 628 235 657 q 225 606 220 617 q 241 592 230 596 q 251 590 247 590 q 277 608 270 590 q 286 627 279 614 q 306 657 294 640 q 336 694 319 674 q 374 732 353 714 q 422 766 396 751 q 476 790 447 781 m 1078 -93 q 1081 -95 1080 -94 q 1084 -98 1083 -97 q 1131 -157 1113 -125 q 1154 -221 1149 -188 q 1153 -287 1160 -254 q 1126 -351 1146 -321 q 1061 -412 1103 -387 q 965 -437 1019 -437 q 922 -432 944 -437 q 875 -418 899 -428 q 777 -370 827 -398 q 676 -310 727 -343 q 670 -306 674 -308 q 647 -308 658 -307 q 624 -310 636 -310 q 305 -226 439 -310 q 94 21 171 -142 q 40 183 58 99 q 23 353 22 267 q 44 523 24 439 q 101 686 63 608 q 191 816 137 758 q 312 914 244 874 q 458 977 380 955 q 622 999 537 999 q 786 975 707 997 q 933 911 865 952 q 1055 813 1001 870 q 1142 686 1108 756 q 1200 523 1181 608 q 1220 353 1219 439 q 1204 183 1222 267 q 1149 21 1186 99 q 1116 -41 1134 -12 q 1078 -93 1099 -69 z "},"r":{"ha":1206,"x_min":38,"x_max":1178,"o":"m 1138 34 q 1169 -22 1160 8 q 1174 -85 1178 -53 q 1152 -152 1169 -118 q 1106 -218 1135 -186 q 1060 -259 1085 -240 q 1007 -292 1035 -278 q 950 -314 979 -306 q 892 -322 921 -322 q 840 -315 865 -322 q 791 -290 814 -307 q 757 -255 775 -278 q 718 -202 738 -232 q 675 -135 697 -172 q 631 -62 653 -99 q 611 -30 621 -46 q 592 2 601 -14 q 591 -7 591 -3 q 589 -17 590 -12 q 585 -47 587 -32 q 581 -76 583 -61 q 547 -186 573 -140 q 486 -262 522 -232 q 407 -306 450 -292 q 321 -320 364 -320 q 236 -306 279 -320 q 158 -262 194 -292 q 96 -186 122 -232 q 63 -79 70 -141 q 51 43 56 -24 q 43 182 46 110 q 39 328 40 253 q 40 473 38 403 q 47 608 42 544 q 60 724 52 672 q 91 824 69 782 q 142 895 114 866 q 202 943 171 925 q 259 972 233 962 q 301 986 285 982 q 319 990 318 990 q 418 1007 365 1001 q 529 1013 472 1013 q 664 1004 592 1013 q 805 975 735 995 q 939 924 875 956 q 1053 847 1003 892 q 1134 740 1103 801 q 1167 602 1165 680 q 1154 474 1169 535 q 1107 361 1138 413 q 1030 268 1076 310 q 927 199 985 227 q 934 195 931 197 q 941 190 938 192 q 1041 122 990 159 q 1138 34 1093 85 m 204 482 q 196 502 204 494 q 176 510 188 510 q 156 502 164 510 q 147 482 147 494 l 147 460 q 156 440 147 448 q 176 432 164 432 q 196 440 188 432 q 204 460 204 448 l 204 482 m 269 789 q 283 806 280 794 q 281 827 287 817 q 256 842 274 842 q 243 839 250 842 q 198 797 216 825 q 169 733 180 769 q 155 657 158 697 q 151 578 151 617 q 160 558 151 566 q 181 551 169 551 q 200 560 192 551 q 208 580 208 568 q 210 648 206 615 q 221 706 214 680 l 233 741 q 269 789 248 778 m 742 552 q 734 582 744 569 q 714 605 724 596 q 669 633 694 622 q 624 644 643 644 q 614 643 617 644 q 594 631 602 640 q 581 607 585 621 q 574 577 576 593 q 575 544 573 560 q 594 488 578 509 q 630 467 609 467 q 668 474 649 467 q 703 491 688 480 q 730 518 719 502 q 742 552 741 533 z "},"s":{"ha":1134,"x_min":28,"x_max":1105,"o":"m 1087 175 q 1103 89 1101 133 q 1099 2 1105 44 q 1079 -77 1092 -40 q 1049 -142 1066 -115 q 958 -234 1013 -199 q 836 -288 903 -269 q 693 -315 769 -308 q 539 -322 617 -322 q 439 -320 488 -322 q 341 -316 389 -318 l 317 -315 q 159 -268 226 -311 q 58 -151 91 -226 q 35 -74 41 -114 q 33 5 28 -34 q 51 81 37 44 q 89 147 65 117 q 164 207 121 186 q 259 227 208 227 q 314 222 286 227 q 369 208 342 217 q 422 190 396 200 q 474 169 449 179 q 525 148 501 157 q 563 140 548 140 q 582 147 576 140 q 593 167 589 155 q 597 185 598 178 q 594 194 597 191 q 573 214 589 205 q 534 232 557 224 q 485 248 512 240 q 430 263 458 256 q 344 286 389 274 q 257 317 300 299 q 175 360 214 335 q 107 418 136 384 q 61 497 78 452 q 44 601 44 542 q 151 878 47 779 q 242 940 192 916 q 350 978 292 965 q 472 998 408 992 q 603 1003 536 1003 q 683 1001 643 1003 q 765 998 724 1000 q 930 943 860 994 q 1033 802 1000 892 q 1054 711 1050 758 q 1051 621 1058 665 q 1027 541 1044 578 q 981 477 1009 503 q 866 431 933 431 q 772 453 821 431 q 741 467 756 460 q 713 480 726 474 q 655 506 682 494 q 613 517 628 517 q 596 508 601 517 q 589 489 592 499 q 586 463 584 472 q 591 449 588 453 q 615 426 598 436 q 655 409 631 417 q 706 393 678 401 q 763 379 733 386 q 853 357 806 369 q 947 326 900 344 q 1033 267 998 306 q 1087 175 1069 229 m 220 603 q 212 623 220 615 q 192 631 203 631 q 172 623 180 631 q 163 603 163 615 l 163 590 q 172 570 163 578 q 192 562 180 562 q 212 570 203 562 q 220 590 220 578 l 220 603 m 404 809 q 424 818 416 809 q 431 838 432 826 q 422 858 431 850 q 401 865 413 865 q 306 845 347 863 q 236 802 265 827 q 192 747 208 776 q 174 693 177 718 q 180 672 173 681 q 199 662 188 663 q 220 668 211 662 q 231 688 229 674 q 235 699 231 690 q 249 722 240 708 q 273 750 258 735 q 306 777 287 765 q 350 799 325 790 q 404 809 374 808 z "},"t":{"ha":1395,"x_min":23,"x_max":1372,"o":"m 194 731 q 195 752 199 741 q 180 767 191 763 q 168 769 175 769 q 146 758 153 769 q 137 734 139 747 q 142 714 135 723 q 160 703 149 706 q 163 703 161 703 q 165 703 164 703 q 183 709 175 703 q 193 726 190 716 q 194 731 194 730 m 483 833 q 503 840 494 833 q 513 859 512 847 q 507 880 515 871 q 488 890 499 888 l 482 890 q 438 892 459 892 q 397 893 417 893 q 192 834 242 893 q 185 814 184 825 q 195 794 185 802 q 213 788 202 788 q 235 798 226 788 q 249 809 239 803 q 277 822 258 816 q 325 833 296 828 q 397 837 354 837 q 435 836 415 837 q 477 833 455 835 l 483 833 m 1147 981 q 1240 948 1198 971 q 1311 891 1281 924 q 1356 817 1340 858 q 1372 728 1372 776 q 1357 644 1372 688 q 1312 563 1342 601 q 1236 495 1282 524 q 1127 454 1190 467 q 1062 444 1096 449 q 991 435 1028 439 q 990 300 992 368 q 983 165 988 231 q 972 38 978 99 q 955 -78 965 -24 q 917 -188 944 -143 q 854 -261 890 -233 q 779 -302 819 -289 q 703 -315 740 -315 l 700 -315 q 618 -301 660 -315 q 540 -259 576 -287 q 476 -186 503 -230 q 437 -81 449 -142 q 421 26 428 -33 q 411 152 415 85 q 407 292 407 219 q 409 440 406 365 q 306 454 349 447 q 180 498 233 467 q 92 567 126 528 q 40 652 57 607 q 23 739 23 697 q 40 827 23 786 q 90 901 58 868 q 167 957 122 934 q 267 990 212 979 q 335 998 294 994 q 426 1005 376 1002 q 533 1008 476 1007 q 650 1009 590 1009 q 799 1007 724 1009 q 940 1002 874 1006 q 1060 993 1006 999 q 1147 981 1114 988 z "},"u":{"ha":1367,"x_min":34,"x_max":1333,"o":"m 1302 750 q 1326 555 1318 645 q 1332 382 1333 464 q 1320 224 1330 300 q 1290 72 1310 148 q 1259 -20 1279 26 q 1207 -110 1239 -67 q 1130 -192 1175 -153 q 1022 -259 1084 -231 q 878 -304 959 -287 q 694 -321 797 -321 q 556 -314 626 -321 q 419 -289 485 -306 q 294 -242 353 -271 q 188 -169 235 -212 q 108 -66 140 -126 q 63 72 76 -6 q 35 419 35 247 q 61 740 34 590 q 93 842 71 794 q 151 928 116 891 q 232 987 185 965 q 337 1009 279 1009 q 415 994 374 1008 q 491 950 455 981 q 553 870 526 919 q 592 750 581 821 q 613 521 608 647 q 613 257 618 394 q 629 212 611 231 q 675 192 647 193 q 722 209 703 192 q 741 256 741 227 q 742 389 740 322 q 747 519 743 456 q 757 639 751 582 q 771 740 763 695 q 803 842 781 794 q 860 928 826 891 q 942 987 895 965 q 1047 1009 989 1009 q 1125 994 1084 1008 q 1201 950 1165 981 q 1264 870 1237 919 q 1302 750 1291 821 m 196 482 q 188 502 196 494 q 168 510 180 510 q 148 502 156 510 q 140 482 140 494 l 140 460 q 148 440 140 448 q 168 432 156 432 q 188 440 180 432 q 196 460 196 448 l 196 482 m 265 813 q 276 832 274 820 q 272 853 278 843 q 248 865 263 865 q 232 860 239 865 q 190 811 208 842 q 162 741 173 780 q 147 660 151 703 q 144 578 142 618 q 152 559 144 567 q 172 551 160 551 q 192 560 184 551 q 200 580 201 568 q 203 657 199 619 q 216 725 208 694 q 238 780 225 756 q 265 813 250 803 m 922 582 q 914 602 922 594 q 894 610 906 610 q 874 602 882 610 q 865 582 865 594 l 865 565 q 874 545 865 553 q 894 537 882 537 q 914 545 906 537 q 922 565 922 553 l 922 582 m 981 827 q 993 845 991 834 q 988 867 994 857 q 964 878 979 878 q 948 874 955 878 q 915 838 930 861 q 889 785 900 815 q 873 723 878 756 q 868 655 867 689 q 877 635 869 643 q 897 627 885 627 l 897 627 q 917 636 909 628 q 925 656 925 644 q 929 713 924 685 q 941 763 933 740 q 960 803 949 786 q 981 827 970 819 z "},"v":{"ha":1286,"x_min":10,"x_max":1276,"o":"m 1083 986 q 1164 942 1126 973 q 1229 865 1203 912 q 1266 755 1256 818 q 1263 613 1276 692 q 1236 507 1256 567 q 1189 379 1216 447 q 1127 241 1161 312 q 1057 102 1093 169 q 985 -26 1021 35 q 915 -133 949 -87 q 862 -200 892 -167 q 798 -260 833 -233 q 725 -303 764 -286 q 641 -319 685 -319 q 505 -272 573 -319 q 371 -133 436 -225 q 302 -26 338 -87 q 229 102 265 35 q 159 241 193 169 q 98 379 126 312 q 50 507 70 447 q 23 613 31 567 q 20 755 10 692 q 57 865 31 818 q 122 942 83 912 q 203 986 160 973 q 271 996 237 996 q 345 984 308 996 q 418 948 383 973 q 486 884 454 923 q 542 790 518 844 q 558 746 551 770 q 570 694 565 722 q 581 637 576 667 q 591 578 586 608 q 601 521 595 553 q 613 460 606 489 q 627 409 619 431 q 642 383 634 388 q 647 384 644 384 q 660 410 653 388 q 673 460 667 431 q 685 520 679 489 q 694 578 690 552 q 715 694 704 638 q 744 790 726 751 q 800 884 768 844 q 868 948 832 923 q 941 984 903 973 q 1015 996 979 996 q 1083 986 1049 996 m 180 481 q 191 469 183 474 q 206 465 198 465 q 218 468 213 465 q 232 484 228 474 q 231 506 235 495 q 205 567 217 538 q 184 626 192 597 q 177 689 176 656 q 194 757 178 721 q 196 779 198 768 q 183 796 194 790 q 169 799 178 799 q 155 796 162 799 q 145 785 149 792 q 180 481 81 679 m 263 388 q 270 402 268 393 q 269 419 272 410 l 263 431 q 252 444 260 440 q 237 449 245 449 q 226 447 232 449 q 211 431 215 442 q 211 409 206 420 l 217 397 q 227 384 220 389 q 242 380 235 380 q 253 382 249 380 q 263 388 258 384 m 862 659 q 862 681 867 670 q 846 696 857 692 q 836 698 841 698 q 820 693 827 698 q 809 679 813 688 l 804 667 q 805 645 800 656 q 821 630 810 634 q 826 628 824 628 q 831 628 828 628 q 858 647 850 628 l 862 659 m 1010 828 q 1031 833 1022 827 q 1042 851 1040 840 q 1038 873 1044 863 q 1019 884 1031 882 q 998 886 1008 886 q 947 875 971 886 q 903 845 923 864 q 867 802 883 826 q 841 751 851 778 q 841 730 836 741 q 856 715 846 719 q 867 713 862 713 q 893 731 886 713 q 905 753 896 737 q 929 785 915 769 q 963 815 944 802 q 1003 828 982 828 l 1010 828 z "},"w":{"ha":1593,"x_min":28,"x_max":1565,"o":"m 1558 656 q 1561 509 1565 587 q 1548 352 1558 432 q 1519 194 1537 273 q 1478 44 1501 116 q 1426 -91 1455 -28 q 1366 -202 1398 -154 q 1298 -280 1333 -249 q 1226 -316 1263 -310 q 1175 -320 1200 -320 q 1094 -307 1131 -320 q 1026 -270 1057 -293 q 971 -218 996 -248 q 926 -156 946 -188 q 889 -90 906 -124 q 858 -27 872 -57 q 842 5 851 -12 q 826 37 834 22 q 810 63 817 52 q 797 75 803 74 q 784 63 792 74 q 767 37 776 52 q 751 5 759 22 q 735 -27 742 -12 q 705 -90 722 -57 q 667 -156 688 -124 q 622 -218 647 -189 q 566 -270 597 -248 q 499 -307 535 -293 q 417 -320 462 -320 q 367 -316 394 -320 q 295 -280 331 -310 q 227 -202 260 -249 q 167 -91 195 -154 q 115 44 138 -28 q 74 194 92 116 q 45 352 56 273 q 32 509 35 432 q 35 656 28 587 q 116 920 49 829 q 292 1011 182 1011 q 495 933 418 1011 q 558 838 535 892 q 592 725 581 784 q 607 609 604 667 q 610 501 610 551 q 640 573 623 537 q 680 638 657 609 q 731 686 702 667 q 797 705 760 705 q 862 686 833 705 q 914 638 891 667 q 953 573 936 609 q 983 501 970 536 q 986 608 983 550 q 1001 725 989 667 q 1035 838 1013 784 q 1098 933 1058 892 q 1301 1011 1175 1011 q 1477 920 1411 1011 q 1558 656 1544 829 m 201 516 q 193 536 201 528 q 173 544 185 544 q 153 536 161 544 q 145 516 145 528 l 145 494 q 153 474 145 483 q 173 466 161 466 q 193 474 185 466 q 201 494 201 483 l 201 516 m 263 819 q 276 837 273 826 q 273 858 278 849 q 263 869 269 865 q 249 872 256 872 q 235 869 240 872 q 194 826 212 856 q 165 759 176 797 q 148 680 153 722 q 145 601 143 638 q 155 581 146 588 q 175 574 163 574 q 194 584 187 576 q 201 604 202 592 q 204 673 199 638 q 218 739 209 708 q 239 791 227 769 q 263 819 251 813 m 1160 538 q 1152 558 1160 549 q 1132 566 1144 566 q 1112 558 1120 566 q 1103 538 1103 549 l 1103 516 q 1112 496 1103 504 q 1132 488 1120 488 q 1152 496 1144 488 q 1160 516 1160 504 l 1160 538 m 1231 831 q 1244 848 1241 836 q 1241 869 1247 859 q 1216 883 1233 883 q 1202 880 1208 883 q 1161 840 1181 867 q 1129 776 1142 812 q 1108 701 1115 741 q 1103 623 1101 660 q 1113 603 1105 611 q 1133 596 1122 596 q 1153 606 1145 597 q 1160 626 1161 615 q 1165 694 1158 660 q 1182 756 1171 728 q 1206 804 1192 784 q 1231 831 1219 824 z "},"x":{"ha":1230,"x_min":14,"x_max":1216,"o":"m 1076 195 q 1113 157 1096 175 q 1141 121 1130 139 q 1195 -28 1189 47 q 1165 -172 1201 -103 q 1120 -232 1147 -205 q 1063 -279 1094 -260 q 995 -309 1031 -299 q 921 -320 959 -320 q 798 -286 853 -320 q 706 -187 743 -251 q 684 -139 693 -165 q 665 -86 674 -112 q 655 -54 660 -71 q 642 -23 649 -37 q 628 1 635 -9 q 615 11 622 10 q 601 1 608 10 q 588 -23 594 -9 q 575 -54 581 -37 q 565 -86 569 -71 q 546 -139 556 -112 q 524 -187 537 -165 q 432 -285 487 -250 q 303 -320 377 -320 q 232 -309 267 -319 q 165 -278 197 -298 q 108 -232 134 -259 q 65 -172 83 -205 q 34 -28 28 -103 q 88 121 40 47 q 117 157 100 139 q 153 195 134 175 q 186 229 169 212 q 215 263 202 246 q 238 298 228 281 q 248 330 247 315 q 240 366 250 347 q 215 407 231 386 q 180 447 199 427 q 145 483 161 467 q 119 509 131 497 q 99 532 108 522 q 26 690 38 608 q 52 849 14 772 q 96 913 70 884 q 154 962 122 942 q 222 993 186 982 q 294 1004 258 1004 q 366 992 333 1004 q 426 957 399 979 q 474 905 453 935 q 510 841 495 876 q 521 809 515 827 q 533 770 526 792 q 547 722 538 749 q 565 669 555 694 q 588 626 576 644 q 615 609 601 609 q 641 626 628 609 q 664 669 653 644 q 683 722 674 694 q 697 770 691 749 q 709 809 703 792 q 720 841 715 827 q 756 905 735 876 q 803 957 776 935 q 864 992 831 979 q 935 1004 897 1004 q 1008 993 972 1004 q 1076 962 1044 982 q 1134 913 1108 942 q 1178 849 1160 884 q 1204 690 1216 772 q 1131 532 1192 608 q 1110 509 1122 522 q 1085 483 1099 497 q 1050 447 1069 467 q 1015 407 1031 427 q 990 367 999 386 q 982 331 980 347 q 992 298 983 315 q 1014 263 1001 281 q 1044 229 1028 246 q 1076 195 1060 212 m 201 597 q 221 606 212 597 q 229 625 229 614 q 220 645 228 637 q 206 663 216 649 q 188 695 195 676 q 181 735 181 713 q 198 780 181 758 q 206 800 206 790 q 198 819 206 811 q 178 828 190 828 q 158 819 166 828 q 133 780 142 803 q 124 731 124 757 q 139 664 125 696 q 181 605 153 631 q 201 597 189 597 m 278 534 q 288 553 288 542 q 281 574 288 565 l 276 580 q 254 589 267 589 q 236 582 243 589 q 226 563 227 574 q 233 542 226 551 l 238 537 q 260 527 247 527 q 278 534 271 527 m 835 729 q 833 751 838 740 q 817 765 828 761 q 808 767 812 767 q 792 762 799 767 q 781 748 785 757 l 776 734 q 778 713 773 723 q 794 698 783 702 q 803 697 799 697 q 819 701 812 697 q 830 715 826 706 l 835 729 m 953 841 q 971 835 963 835 q 993 847 985 835 q 999 867 1001 856 q 988 886 997 878 q 962 899 977 894 q 931 903 947 903 q 864 882 893 903 q 820 826 835 862 q 819 805 815 816 q 835 790 824 794 q 846 788 840 788 q 861 792 854 788 q 872 805 869 797 q 879 816 874 809 q 891 831 884 824 q 908 844 899 838 q 929 849 918 849 q 953 841 941 849 z "},"y":{"ha":1246,"x_min":14,"x_max":1239,"o":"m 1160 928 q 1225 775 1212 867 q 1213 578 1239 683 q 1164 447 1195 510 q 1089 332 1132 385 q 991 238 1045 279 q 874 168 937 196 q 889 67 885 120 q 887 -39 892 14 q 866 -140 882 -91 q 819 -228 849 -189 q 617 -320 747 -320 q 513 -298 560 -320 q 432 -233 466 -276 q 385 -145 402 -194 q 362 -43 368 -97 q 359 64 356 10 q 372 168 362 119 q 255 238 310 196 q 157 332 201 279 q 82 447 113 385 q 33 578 50 509 q 17 681 19 631 q 20 775 14 731 q 43 859 27 820 q 85 928 60 899 q 179 1004 126 978 q 287 1030 231 1030 q 401 1001 346 1030 q 463 954 434 983 q 511 887 492 925 q 534 802 529 849 q 525 702 540 755 q 520 619 513 660 q 552 547 528 578 q 584 519 567 529 q 619 509 601 509 q 664 524 643 509 q 698 556 685 538 q 726 625 720 587 q 721 702 732 663 q 711 802 706 755 q 734 887 716 849 q 782 954 753 925 q 844 1001 811 983 q 958 1030 900 1030 q 1067 1004 1015 1030 q 1160 928 1119 978 m 184 551 q 201 565 196 555 q 203 586 206 575 l 199 599 q 186 615 196 610 q 164 617 176 621 q 147 604 153 614 q 145 582 142 594 l 149 570 q 159 555 152 560 q 176 550 167 550 q 184 551 181 550 m 216 819 q 231 834 227 824 q 231 856 235 845 q 220 869 227 865 q 205 873 213 873 q 194 871 199 873 q 153 838 169 860 q 128 785 137 815 q 119 724 120 756 q 125 663 119 692 q 135 647 127 653 q 152 641 142 641 q 158 642 156 641 q 176 654 170 644 q 180 675 183 663 q 175 721 175 698 q 181 764 176 744 q 195 799 186 784 q 216 819 204 814 m 871 684 q 863 704 871 696 q 842 713 854 713 q 822 704 831 713 q 814 684 814 696 l 814 674 q 822 655 814 663 q 842 647 831 647 q 863 655 854 647 q 871 674 871 663 l 871 684 m 893 849 q 912 859 905 851 q 918 880 919 868 q 909 899 917 892 q 890 906 901 906 q 858 895 873 906 q 833 872 842 885 q 810 818 816 850 q 810 756 803 786 q 820 740 812 747 q 838 733 828 733 q 840 734 839 733 q 843 734 842 734 q 861 746 855 737 q 865 767 867 756 q 865 806 861 785 q 878 839 868 826 q 893 849 885 848 z "},"z":{"ha":1142,"x_min":31,"x_max":1113,"o":"m 842 225 q 864 227 853 226 q 885 228 874 228 q 981 207 937 228 q 1056 145 1024 186 q 1092 83 1078 117 q 1109 12 1105 49 q 1108 -62 1113 -24 q 1088 -133 1103 -99 q 995 -247 1057 -205 q 847 -297 933 -289 l 811 -301 q 668 -314 747 -307 q 507 -320 590 -320 q 405 -317 459 -320 q 298 -302 351 -313 q 196 -272 244 -292 q 111 -221 148 -253 q 52 -144 74 -190 q 31 -37 31 -99 q 48 70 31 22 q 96 158 66 118 q 165 229 126 197 q 248 286 204 260 q 337 334 292 313 q 424 373 382 355 q 486 401 456 387 q 540 430 517 415 q 577 457 564 444 q 586 483 590 471 q 577 503 582 499 q 571 508 572 507 q 556 511 565 511 q 509 502 538 511 q 447 481 481 492 q 408 466 429 474 q 365 451 388 459 q 284 438 324 438 q 203 454 240 438 q 135 502 165 470 q 93 566 110 530 q 70 643 76 603 q 69 726 65 684 q 89 808 74 769 q 197 943 123 893 q 374 998 272 992 l 384 999 q 495 1005 438 1002 q 609 1008 551 1008 q 728 1003 668 1008 q 843 985 788 998 q 948 948 899 972 q 1033 888 997 925 q 1090 799 1069 851 q 1111 674 1111 746 q 1093 568 1111 615 q 1045 483 1076 521 q 976 415 1015 444 q 892 361 936 385 q 802 318 848 337 q 715 282 756 299 q 643 253 678 267 q 582 223 608 238 q 542 192 556 208 q 531 158 528 176 q 532 153 531 154 q 533 152 533 152 q 548 149 538 149 q 573 152 558 149 q 605 160 588 155 q 640 170 622 165 q 674 181 658 176 q 756 206 713 193 q 842 225 799 218 m 246 632 q 246 648 247 644 q 244 655 245 652 q 234 669 241 665 q 217 674 227 674 q 208 673 214 674 q 193 661 199 669 q 190 642 188 652 l 190 638 q 189 635 189 637 q 196 615 188 624 q 216 606 204 606 q 236 613 228 606 q 246 632 244 620 m 402 829 q 423 836 414 828 q 433 855 432 843 q 427 875 435 867 q 408 885 419 884 q 398 886 403 886 q 385 887 392 887 q 315 878 349 887 q 252 850 280 869 q 208 802 225 831 q 189 733 191 774 q 196 713 188 722 q 216 704 204 705 q 236 712 228 704 q 246 731 243 719 q 259 770 249 751 q 288 803 269 789 q 334 824 306 817 q 402 829 363 831 z "}}}
